<mxfile host="app.diagrams.net" modified="2024-05-27T10:29:07.886Z" agent="Mozilla/5.0 (Windows NT 10.0; Win64; x64) AppleWebKit/537.36 (KHTML, like Gecko) Chrome/125.0.0.0 Safari/537.36 Edg/125.0.0.0" etag="I9Y61yWHmTo9Z0tYfBhR" version="24.4.8" type="github">
  <diagram name="第 1 页" id="7eiAGlhokpOFbFWezHT-">
    <mxGraphModel dx="1389" dy="2359" grid="0" gridSize="10" guides="1" tooltips="1" connect="1" arrows="1" fold="1" page="0" pageScale="1" pageWidth="827" pageHeight="1169" math="0" shadow="0">
      <root>
        <mxCell id="0" />
        <mxCell id="1" parent="0" />
        <UserObject label="" plantUmlData="{&#xa;  &quot;data&quot;: &quot;@startmindmap\nskinparam monochrome true\nskinparam shadowing false\nskinparam NodeFontSize 12\nskinparam NodeMargin 10\n\n* Pruning\n** Unstructured Pruning\n*** SparseGPT [Frantar and Alistarh, 2023]\n*** LoRAPrune [Zhang et al., 2023]\n*** Wanda [Sun et al., 2023]\n** Structured Pruning\n*** GUM [Santacroce et al., 2023]\n*** LLM-Pruner [Ma et al., 2023]\n\n* Knowledge Distillation\n** White-box KD\n*** MINILLM [Gu et al., 2023]\n*** GKD [Agarwal et al., 2023]\n*** TF-LLMD [Jha et al., 2023]\n** In-Context Learning\n*** In-Context Learning distillation [Huang et al., 2022]\n** Black-box KD\n*** Finc-tunc-CoT [Ho et al., 2023]\n*** SSLM [Fu et al., 2023]\n\n* Chain-of-Thought\n** SCOTT [Wang et al., 2023]\n** Distilling Step-by-Step [Hsich et al., 2023]\n** SOCRATIC CoT [Shridhar et al., 2023]\n** PaD [Zhu et al., 2023]\n** LMTWA [Saha et al., 2023]\n\n* Instruction Following\n** Lion [Jiang et al., 2023]\n** LaMini-LM [Wu et al., 2023]\n\n* Quantization-Aware Training\n** LLM-QAT [Liu et al., 2023]\n** PEQA [Kim et al., 2023]\n** QLORA [Dcllmcrs et al., 2023]\n\n* Quantization\n** Weight Quantization\n*** GPTQ [Frantar et al., 2022]\n*** AWQ [Lin et al., 2023]\n*** OWQ [Lee et al., 2023]\n*** SpQR [Dettmers et al., 2023]\n*** SqueezeLLM [Kim et al., 2023]\n*** QulP [Chee et al., 2023]\n*** SignRound [Cheng et al., 2023]\n** Post-Training Quantization\n*** ZeroQuant [Yao et al., 2022]\n*** SmoothQuant [Xiao et al., 2022]\n*** RPTQ [Yuan et al., 2023]\n*** OliVe [Guo et al., 2023]\n*** ZeroQuant-V2 [Yao et al., 2023]\n*** Outlier Suppression+ [Wei et al., 2023]\n*** MoFQ [Zhang et al., 2023]\n*** ZeroQuant-FP [Wu et al., 2023]\n*** FPTQ [Li et al., 2023]\n*** QuantEase [Behdin et al., 2023]\n*** Norm Twcaking [Li et al., 2023]\n*** OmniQuant [Shao et al., 2023]\n\n* Low-Rank Factorization\n** TensorGPT [Xu et al., 2023]\n@endmindmap&quot;,&#xa;  &quot;format&quot;: &quot;svg&quot;&#xa;}" id="nkaYR-5ZIuagm4NtuiVx-1">
          <mxCell style="shape=image;noLabel=1;verticalAlign=top;aspect=fixed;imageAspect=0;image=data:image/svg+xml,PD94bWwgdmVyc2lvbj0iMS4wIiBlbmNvZGluZz0idXMtYXNjaWkiIHN0YW5kYWxvbmU9Im5vIj8+PHN2ZyB4bWxucz0iaHR0cDovL3d3dy53My5vcmcvMjAwMC9zdmciIHhtbG5zOnhsaW5rPSJodHRwOi8vd3d3LnczLm9yZy8xOTk5L3hsaW5rIiBjb250ZW50U3R5bGVUeXBlPSJ0ZXh0L2NzcyIgaGVpZ2h0PSIyMTg4cHgiIHByZXNlcnZlQXNwZWN0UmF0aW89Im5vbmUiIHN0eWxlPSJ3aWR0aDo3OTNweDtoZWlnaHQ6MjE4OHB4O2JhY2tncm91bmQ6I0ZGRkZGRjsiIHZlcnNpb249IjEuMSIgdmlld0JveD0iMCAwIDc5MyAyMTg4IiB3aWR0aD0iNzkzcHgiIHpvb21BbmRQYW49Im1hZ25pZnkiPjxkZWZzLz48Zz48cmVjdCBmaWxsPSIjRjFGMUYxIiBoZWlnaHQ9IjMyLjg0MzgiIHJ4PSIxMi41IiByeT0iMTIuNSIgc3R5bGU9InN0cm9rZTojMTgxODE4O3N0cm9rZS13aWR0aDoxLjU7IiB3aWR0aD0iNjgiIHg9IjEwIiB5PSIxMjUuNjg3NSIvPjx0ZXh0IGZpbGw9IiMwMDAwMDAiIGZvbnQtZmFtaWx5PSJzYW5zLXNlcmlmIiBmb250LXNpemU9IjEyIiBsZW5ndGhBZGp1c3Q9InNwYWNpbmciIHRleHRMZW5ndGg9IjQ4IiB4PSIyMCIgeT0iMTQ3LjAzMTMiPlBydW5pbmc8L3RleHQ+PHJlY3QgZmlsbD0iI0YxRjFGMSIgaGVpZ2h0PSIzMi44NDM4IiByeD0iMTIuNSIgcnk9IjEyLjUiIHN0eWxlPSJzdHJva2U6IzE4MTgxODtzdHJva2Utd2lkdGg6MS41OyIgd2lkdGg9IjE1NSIgeD0iMTI4IiB5PSI3Mi44NDM4Ii8+PHRleHQgZmlsbD0iIzAwMDAwMCIgZm9udC1mYW1pbHk9InNhbnMtc2VyaWYiIGZvbnQtc2l6ZT0iMTIiIGxlbmd0aEFkanVzdD0ic3BhY2luZyIgdGV4dExlbmd0aD0iMTM1IiB4PSIxMzgiIHk9Ijk0LjE4NzUiPlVuc3RydWN0dXJlZCBQcnVuaW5nPC90ZXh0PjxyZWN0IGZpbGw9IiNGMUYxRjEiIGhlaWdodD0iMzIuODQzOCIgcng9IjEyLjUiIHJ5PSIxMi41IiBzdHlsZT0ic3Ryb2tlOiMxODE4MTg7c3Ryb2tlLXdpZHRoOjEuNTsiIHdpZHRoPSIyNjkiIHg9IjMzMyIgeT0iMjAiLz48dGV4dCBmaWxsPSIjMDAwMDAwIiBmb250LWZhbWlseT0ic2Fucy1zZXJpZiIgZm9udC1zaXplPSIxMiIgbGVuZ3RoQWRqdXN0PSJzcGFjaW5nIiB0ZXh0TGVuZ3RoPSIyNDkiIHg9IjM0MyIgeT0iNDEuMzQzOCI+U3BhcnNlR1BUIFtGcmFudGFyIGFuZCBBbGlzdGFyaCwgMjAyM108L3RleHQ+PHBhdGggZD0iTTI4Myw4OS4yNjU2IEwyOTMsODkuMjY1NiBDMzA4LDg5LjI2NTYgMzA4LDM2LjQyMTkgMzIzLDM2LjQyMTkgTDMzMywzNi40MjE5ICIgZmlsbD0ibm9uZSIgc3R5bGU9InN0cm9rZTojMTgxODE4O3N0cm9rZS13aWR0aDoxLjA7Ii8+PHJlY3QgZmlsbD0iI0YxRjFGMSIgaGVpZ2h0PSIzMi44NDM4IiByeD0iMTIuNSIgcnk9IjEyLjUiIHN0eWxlPSJzdHJva2U6IzE4MTgxODtzdHJva2Utd2lkdGg6MS41OyIgd2lkdGg9IjIxNSIgeD0iMzMzIiB5PSI3Mi44NDM4Ii8+PHRleHQgZmlsbD0iIzAwMDAwMCIgZm9udC1mYW1pbHk9InNhbnMtc2VyaWYiIGZvbnQtc2l6ZT0iMTIiIGxlbmd0aEFkanVzdD0ic3BhY2luZyIgdGV4dExlbmd0aD0iMTk1IiB4PSIzNDMiIHk9Ijk0LjE4NzUiPkxvUkFQcnVuZSBbWmhhbmcgZXQgYWwuLCAyMDIzXTwvdGV4dD48cGF0aCBkPSJNMjgzLDg5LjI2NTYgTDI5Myw4OS4yNjU2IEMzMDgsODkuMjY1NiAzMDgsODkuMjY1NiAzMjMsODkuMjY1NiBMMzMzLDg5LjI2NTYgIiBmaWxsPSJub25lIiBzdHlsZT0ic3Ryb2tlOiMxODE4MTg7c3Ryb2tlLXdpZHRoOjEuMDsiLz48cmVjdCBmaWxsPSIjRjFGMUYxIiBoZWlnaHQ9IjMyLjg0MzgiIHJ4PSIxMi41IiByeT0iMTIuNSIgc3R5bGU9InN0cm9rZTojMTgxODE4O3N0cm9rZS13aWR0aDoxLjU7IiB3aWR0aD0iMTc0IiB4PSIzMzMiIHk9IjEyNS42ODc1Ii8+PHRleHQgZmlsbD0iIzAwMDAwMCIgZm9udC1mYW1pbHk9InNhbnMtc2VyaWYiIGZvbnQtc2l6ZT0iMTIiIGxlbmd0aEFkanVzdD0ic3BhY2luZyIgdGV4dExlbmd0aD0iMTU0IiB4PSIzNDMiIHk9IjE0Ny4wMzEzIj5XYW5kYSBbU3VuIGV0IGFsLiwgMjAyM108L3RleHQ+PHBhdGggZD0iTTI4Myw4OS4yNjU2IEwyOTMsODkuMjY1NiBDMzA4LDg5LjI2NTYgMzA4LDE0Mi4xMDk0IDMyMywxNDIuMTA5NCBMMzMzLDE0Mi4xMDk0ICIgZmlsbD0ibm9uZSIgc3R5bGU9InN0cm9rZTojMTgxODE4O3N0cm9rZS13aWR0aDoxLjA7Ii8+PHBhdGggZD0iTTc4LDE0Mi4xMDk0IEw4OCwxNDIuMTA5NCBDMTAzLDE0Mi4xMDk0IDEwMyw4OS4yNjU2IDExOCw4OS4yNjU2IEwxMjgsODkuMjY1NiAiIGZpbGw9Im5vbmUiIHN0eWxlPSJzdHJva2U6IzE4MTgxODtzdHJva2Utd2lkdGg6MS4wOyIvPjxyZWN0IGZpbGw9IiNGMUYxRjEiIGhlaWdodD0iMzIuODQzOCIgcng9IjEyLjUiIHJ5PSIxMi41IiBzdHlsZT0ic3Ryb2tlOiMxODE4MTg7c3Ryb2tlLXdpZHRoOjEuNTsiIHdpZHRoPSIxNDEiIHg9IjEyOCIgeT0iMjA0Ljk1MzEiLz48dGV4dCBmaWxsPSIjMDAwMDAwIiBmb250LWZhbWlseT0ic2Fucy1zZXJpZiIgZm9udC1zaXplPSIxMiIgbGVuZ3RoQWRqdXN0PSJzcGFjaW5nIiB0ZXh0TGVuZ3RoPSIxMjEiIHg9IjEzOCIgeT0iMjI2LjI5NjkiPlN0cnVjdHVyZWQgUHJ1bmluZzwvdGV4dD48cmVjdCBmaWxsPSIjRjFGMUYxIiBoZWlnaHQ9IjMyLjg0MzgiIHJ4PSIxMi41IiByeT0iMTIuNSIgc3R5bGU9InN0cm9rZTojMTgxODE4O3N0cm9rZS13aWR0aDoxLjU7IiB3aWR0aD0iMjA2IiB4PSIzMTkiIHk9IjE3OC41MzEzIi8+PHRleHQgZmlsbD0iIzAwMDAwMCIgZm9udC1mYW1pbHk9InNhbnMtc2VyaWYiIGZvbnQtc2l6ZT0iMTIiIGxlbmd0aEFkanVzdD0ic3BhY2luZyIgdGV4dExlbmd0aD0iMTg2IiB4PSIzMjkiIHk9IjE5OS44NzUiPkdVTSBbU2FudGFjcm9jZSBldCBhbC4sIDIwMjNdPC90ZXh0PjxwYXRoIGQ9Ik0yNjksMjIxLjM3NSBMMjc5LDIyMS4zNzUgQzI5NCwyMjEuMzc1IDI5NCwxOTQuOTUzMSAzMDksMTk0Ljk1MzEgTDMxOSwxOTQuOTUzMSAiIGZpbGw9Im5vbmUiIHN0eWxlPSJzdHJva2U6IzE4MTgxODtzdHJva2Utd2lkdGg6MS4wOyIvPjxyZWN0IGZpbGw9IiNGMUYxRjEiIGhlaWdodD0iMzIuODQzOCIgcng9IjEyLjUiIHJ5PSIxMi41IiBzdHlsZT0ic3Ryb2tlOiMxODE4MTg7c3Ryb2tlLXdpZHRoOjEuNTsiIHdpZHRoPSIxOTkiIHg9IjMxOSIgeT0iMjMxLjM3NSIvPjx0ZXh0IGZpbGw9IiMwMDAwMDAiIGZvbnQtZmFtaWx5PSJzYW5zLXNlcmlmIiBmb250LXNpemU9IjEyIiBsZW5ndGhBZGp1c3Q9InNwYWNpbmciIHRleHRMZW5ndGg9IjE3OSIgeD0iMzI5IiB5PSIyNTIuNzE4OCI+TExNLVBydW5lciBbTWEgZXQgYWwuLCAyMDIzXTwvdGV4dD48cGF0aCBkPSJNMjY5LDIyMS4zNzUgTDI3OSwyMjEuMzc1IEMyOTQsMjIxLjM3NSAyOTQsMjQ3Ljc5NjkgMzA5LDI0Ny43OTY5IEwzMTksMjQ3Ljc5NjkgIiBmaWxsPSJub25lIiBzdHlsZT0ic3Ryb2tlOiMxODE4MTg7c3Ryb2tlLXdpZHRoOjEuMDsiLz48cGF0aCBkPSJNNzgsMTQyLjEwOTQgTDg4LDE0Mi4xMDk0IEMxMDMsMTQyLjEwOTQgMTAzLDIyMS4zNzUgMTE4LDIyMS4zNzUgTDEyOCwyMjEuMzc1ICIgZmlsbD0ibm9uZSIgc3R5bGU9InN0cm9rZTojMTgxODE4O3N0cm9rZS13aWR0aDoxLjA7Ii8+PHJlY3QgZmlsbD0iI0YxRjFGMSIgaGVpZ2h0PSIzMi44NDM4IiByeD0iMTIuNSIgcnk9IjEyLjUiIHN0eWxlPSJzdHJva2U6IzE4MTgxODtzdHJva2Utd2lkdGg6MS41OyIgd2lkdGg9IjE2MyIgeD0iMTAiIHk9IjQxNi4zMjgxIi8+PHRleHQgZmlsbD0iIzAwMDAwMCIgZm9udC1mYW1pbHk9InNhbnMtc2VyaWYiIGZvbnQtc2l6ZT0iMTIiIGxlbmd0aEFkanVzdD0ic3BhY2luZyIgdGV4dExlbmd0aD0iMTQzIiB4PSIyMCIgeT0iNDM3LjY3MTkiPktub3dsZWRnZSBEaXN0aWxsYXRpb248L3RleHQ+PHJlY3QgZmlsbD0iI0YxRjFGMSIgaGVpZ2h0PSIzMi44NDM4IiByeD0iMTIuNSIgcnk9IjEyLjUiIHN0eWxlPSJzdHJva2U6IzE4MTgxODtzdHJva2Utd2lkdGg6MS41OyIgd2lkdGg9Ijk5IiB4PSIyMjMiIHk9IjMzNy4wNjI1Ii8+PHRleHQgZmlsbD0iIzAwMDAwMCIgZm9udC1mYW1pbHk9InNhbnMtc2VyaWYiIGZvbnQtc2l6ZT0iMTIiIGxlbmd0aEFkanVzdD0ic3BhY2luZyIgdGV4dExlbmd0aD0iNzkiIHg9IjIzMyIgeT0iMzU4LjQwNjMiPldoaXRlLWJveCBLRDwvdGV4dD48cmVjdCBmaWxsPSIjRjFGMUYxIiBoZWlnaHQ9IjMyLjg0MzgiIHJ4PSIxMi41IiByeT0iMTIuNSIgc3R5bGU9InN0cm9rZTojMTgxODE4O3N0cm9rZS13aWR0aDoxLjU7IiB3aWR0aD0iMTc3IiB4PSIzNzIiIHk9IjI4NC4yMTg4Ii8+PHRleHQgZmlsbD0iIzAwMDAwMCIgZm9udC1mYW1pbHk9InNhbnMtc2VyaWYiIGZvbnQtc2l6ZT0iMTIiIGxlbmd0aEFkanVzdD0ic3BhY2luZyIgdGV4dExlbmd0aD0iMTU3IiB4PSIzODIiIHk9IjMwNS41NjI1Ij5NSU5JTExNIFtHdSBldCBhbC4sIDIwMjNdPC90ZXh0PjxwYXRoIGQ9Ik0zMjIsMzUzLjQ4NDQgTDMzMiwzNTMuNDg0NCBDMzQ3LDM1My40ODQ0IDM0NywzMDAuNjQwNiAzNjIsMzAwLjY0MDYgTDM3MiwzMDAuNjQwNiAiIGZpbGw9Im5vbmUiIHN0eWxlPSJzdHJva2U6IzE4MTgxODtzdHJva2Utd2lkdGg6MS4wOyIvPjxyZWN0IGZpbGw9IiNGMUYxRjEiIGhlaWdodD0iMzIuODQzOCIgcng9IjEyLjUiIHJ5PSIxMi41IiBzdHlsZT0ic3Ryb2tlOiMxODE4MTg7c3Ryb2tlLXdpZHRoOjEuNTsiIHdpZHRoPSIxODUiIHg9IjM3MiIgeT0iMzM3LjA2MjUiLz48dGV4dCBmaWxsPSIjMDAwMDAwIiBmb250LWZhbWlseT0ic2Fucy1zZXJpZiIgZm9udC1zaXplPSIxMiIgbGVuZ3RoQWRqdXN0PSJzcGFjaW5nIiB0ZXh0TGVuZ3RoPSIxNjUiIHg9IjM4MiIgeT0iMzU4LjQwNjMiPkdLRCBbQWdhcndhbCBldCBhbC4sIDIwMjNdPC90ZXh0PjxwYXRoIGQ9Ik0zMjIsMzUzLjQ4NDQgTDMzMiwzNTMuNDg0NCBDMzQ3LDM1My40ODQ0IDM0NywzNTMuNDg0NCAzNjIsMzUzLjQ4NDQgTDM3MiwzNTMuNDg0NCAiIGZpbGw9Im5vbmUiIHN0eWxlPSJzdHJva2U6IzE4MTgxODtzdHJva2Utd2lkdGg6MS4wOyIvPjxyZWN0IGZpbGw9IiNGMUYxRjEiIGhlaWdodD0iMzIuODQzOCIgcng9IjEyLjUiIHJ5PSIxMi41IiBzdHlsZT0ic3Ryb2tlOiMxODE4MTg7c3Ryb2tlLXdpZHRoOjEuNTsiIHdpZHRoPSIxODIiIHg9IjM3MiIgeT0iMzg5LjkwNjMiLz48dGV4dCBmaWxsPSIjMDAwMDAwIiBmb250LWZhbWlseT0ic2Fucy1zZXJpZiIgZm9udC1zaXplPSIxMiIgbGVuZ3RoQWRqdXN0PSJzcGFjaW5nIiB0ZXh0TGVuZ3RoPSIxNjIiIHg9IjM4MiIgeT0iNDExLjI1Ij5URi1MTE1EIFtKaGEgZXQgYWwuLCAyMDIzXTwvdGV4dD48cGF0aCBkPSJNMzIyLDM1My40ODQ0IEwzMzIsMzUzLjQ4NDQgQzM0NywzNTMuNDg0NCAzNDcsNDA2LjMyODEgMzYyLDQwNi4zMjgxIEwzNzIsNDA2LjMyODEgIiBmaWxsPSJub25lIiBzdHlsZT0ic3Ryb2tlOiMxODE4MTg7c3Ryb2tlLXdpZHRoOjEuMDsiLz48cGF0aCBkPSJNMTczLDQzMi43NSBMMTgzLDQzMi43NSBDMTk4LDQzMi43NSAxOTgsMzUzLjQ4NDQgMjEzLDM1My40ODQ0IEwyMjMsMzUzLjQ4NDQgIiBmaWxsPSJub25lIiBzdHlsZT0ic3Ryb2tlOiMxODE4MTg7c3Ryb2tlLXdpZHRoOjEuMDsiLz48cmVjdCBmaWxsPSIjRjFGMUYxIiBoZWlnaHQ9IjMyLjg0MzgiIHJ4PSIxMi41IiByeT0iMTIuNSIgc3R5bGU9InN0cm9rZTojMTgxODE4O3N0cm9rZS13aWR0aDoxLjU7IiB3aWR0aD0iMTQ2IiB4PSIyMjMiIHk9IjQ0Mi43NSIvPjx0ZXh0IGZpbGw9IiMwMDAwMDAiIGZvbnQtZmFtaWx5PSJzYW5zLXNlcmlmIiBmb250LXNpemU9IjEyIiBsZW5ndGhBZGp1c3Q9InNwYWNpbmciIHRleHRMZW5ndGg9IjEyNiIgeD0iMjMzIiB5PSI0NjQuMDkzOCI+SW4tQ29udGV4dCBMZWFybmluZzwvdGV4dD48cmVjdCBmaWxsPSIjRjFGMUYxIiBoZWlnaHQ9IjMyLjg0MzgiIHJ4PSIxMi41IiByeT0iMTIuNSIgc3R5bGU9InN0cm9rZTojMTgxODE4O3N0cm9rZS13aWR0aDoxLjU7IiB3aWR0aD0iMzYyIiB4PSI0MTkiIHk9IjQ0Mi43NSIvPjx0ZXh0IGZpbGw9IiMwMDAwMDAiIGZvbnQtZmFtaWx5PSJzYW5zLXNlcmlmIiBmb250LXNpemU9IjEyIiBsZW5ndGhBZGp1c3Q9InNwYWNpbmciIHRleHRMZW5ndGg9IjM0MiIgeD0iNDI5IiB5PSI0NjQuMDkzOCI+SW4tQ29udGV4dCBMZWFybmluZyBkaXN0aWxsYXRpb24gW0h1YW5nIGV0IGFsLiwgMjAyMl08L3RleHQ+PHBhdGggZD0iTTM2OSw0NTkuMTcxOSBMMzc5LDQ1OS4xNzE5IEMzOTQsNDU5LjE3MTkgMzk0LDQ1OS4xNzE5IDQwOSw0NTkuMTcxOSBMNDE5LDQ1OS4xNzE5ICIgZmlsbD0ibm9uZSIgc3R5bGU9InN0cm9rZTojMTgxODE4O3N0cm9rZS13aWR0aDoxLjA7Ii8+PHBhdGggZD0iTTE3Myw0MzIuNzUgTDE4Myw0MzIuNzUgQzE5OCw0MzIuNzUgMTk4LDQ1OS4xNzE5IDIxMyw0NTkuMTcxOSBMMjIzLDQ1OS4xNzE5ICIgZmlsbD0ibm9uZSIgc3R5bGU9InN0cm9rZTojMTgxODE4O3N0cm9rZS13aWR0aDoxLjA7Ii8+PHJlY3QgZmlsbD0iI0YxRjFGMSIgaGVpZ2h0PSIzMi44NDM4IiByeD0iMTIuNSIgcnk9IjEyLjUiIHN0eWxlPSJzdHJva2U6IzE4MTgxODtzdHJva2Utd2lkdGg6MS41OyIgd2lkdGg9Ijk4IiB4PSIyMjMiIHk9IjUyMi4wMTU2Ii8+PHRleHQgZmlsbD0iIzAwMDAwMCIgZm9udC1mYW1pbHk9InNhbnMtc2VyaWYiIGZvbnQtc2l6ZT0iMTIiIGxlbmd0aEFkanVzdD0ic3BhY2luZyIgdGV4dExlbmd0aD0iNzgiIHg9IjIzMyIgeT0iNTQzLjM1OTQiPkJsYWNrLWJveCBLRDwvdGV4dD48cmVjdCBmaWxsPSIjRjFGMUYxIiBoZWlnaHQ9IjMyLjg0MzgiIHJ4PSIxMi41IiByeT0iMTIuNSIgc3R5bGU9InN0cm9rZTojMTgxODE4O3N0cm9rZS13aWR0aDoxLjU7IiB3aWR0aD0iMjE1IiB4PSIzNzEiIHk9IjQ5NS41OTM4Ii8+PHRleHQgZmlsbD0iIzAwMDAwMCIgZm9udC1mYW1pbHk9InNhbnMtc2VyaWYiIGZvbnQtc2l6ZT0iMTIiIGxlbmd0aEFkanVzdD0ic3BhY2luZyIgdGV4dExlbmd0aD0iMTk1IiB4PSIzODEiIHk9IjUxNi45Mzc1Ij5GaW5jLXR1bmMtQ29UIFtIbyBldCBhbC4sIDIwMjNdPC90ZXh0PjxwYXRoIGQ9Ik0zMjEsNTM4LjQzNzUgTDMzMSw1MzguNDM3NSBDMzQ2LDUzOC40Mzc1IDM0Niw1MTIuMDE1NiAzNjEsNTEyLjAxNTYgTDM3MSw1MTIuMDE1NiAiIGZpbGw9Im5vbmUiIHN0eWxlPSJzdHJva2U6IzE4MTgxODtzdHJva2Utd2lkdGg6MS4wOyIvPjxyZWN0IGZpbGw9IiNGMUYxRjEiIGhlaWdodD0iMzIuODQzOCIgcng9IjEyLjUiIHJ5PSIxMi41IiBzdHlsZT0ic3Ryb2tlOiMxODE4MTg7c3Ryb2tlLXdpZHRoOjEuNTsiIHdpZHRoPSIxNTgiIHg9IjM3MSIgeT0iNTQ4LjQzNzUiLz48dGV4dCBmaWxsPSIjMDAwMDAwIiBmb250LWZhbWlseT0ic2Fucy1zZXJpZiIgZm9udC1zaXplPSIxMiIgbGVuZ3RoQWRqdXN0PSJzcGFjaW5nIiB0ZXh0TGVuZ3RoPSIxMzgiIHg9IjM4MSIgeT0iNTY5Ljc4MTMiPlNTTE0gW0Z1IGV0IGFsLiwgMjAyM108L3RleHQ+PHBhdGggZD0iTTMyMSw1MzguNDM3NSBMMzMxLDUzOC40Mzc1IEMzNDYsNTM4LjQzNzUgMzQ2LDU2NC44NTk0IDM2MSw1NjQuODU5NCBMMzcxLDU2NC44NTk0ICIgZmlsbD0ibm9uZSIgc3R5bGU9InN0cm9rZTojMTgxODE4O3N0cm9rZS13aWR0aDoxLjA7Ii8+PHBhdGggZD0iTTE3Myw0MzIuNzUgTDE4Myw0MzIuNzUgQzE5OCw0MzIuNzUgMTk4LDUzOC40Mzc1IDIxMyw1MzguNDM3NSBMMjIzLDUzOC40Mzc1ICIgZmlsbD0ibm9uZSIgc3R5bGU9InN0cm9rZTojMTgxODE4O3N0cm9rZS13aWR0aDoxLjA7Ii8+PHJlY3QgZmlsbD0iI0YxRjFGMSIgaGVpZ2h0PSIzMi44NDM4IiByeD0iMTIuNSIgcnk9IjEyLjUiIHN0eWxlPSJzdHJva2U6IzE4MTgxODtzdHJva2Utd2lkdGg6MS41OyIgd2lkdGg9IjEyNiIgeD0iMTAiIHk9IjcwNi45Njg4Ii8+PHRleHQgZmlsbD0iIzAwMDAwMCIgZm9udC1mYW1pbHk9InNhbnMtc2VyaWYiIGZvbnQtc2l6ZT0iMTIiIGxlbmd0aEFkanVzdD0ic3BhY2luZyIgdGV4dExlbmd0aD0iMTA2IiB4PSIyMCIgeT0iNzI4LjMxMjUiPkNoYWluLW9mLVRob3VnaHQ8L3RleHQ+PHJlY3QgZmlsbD0iI0YxRjFGMSIgaGVpZ2h0PSIzMi44NDM4IiByeD0iMTIuNSIgcnk9IjEyLjUiIHN0eWxlPSJzdHJva2U6IzE4MTgxODtzdHJva2Utd2lkdGg6MS41OyIgd2lkdGg9IjE3OSIgeD0iMTg2IiB5PSI2MDEuMjgxMyIvPjx0ZXh0IGZpbGw9IiMwMDAwMDAiIGZvbnQtZmFtaWx5PSJzYW5zLXNlcmlmIiBmb250LXNpemU9IjEyIiBsZW5ndGhBZGp1c3Q9InNwYWNpbmciIHRleHRMZW5ndGg9IjE1OSIgeD0iMTk2IiB5PSI2MjIuNjI1Ij5TQ09UVCBbV2FuZyBldCBhbC4sIDIwMjNdPC90ZXh0PjxwYXRoIGQ9Ik0xMzYsNzIzLjM5MDYgTDE0Niw3MjMuMzkwNiBDMTYxLDcyMy4zOTA2IDE2MSw2MTcuNzAzMSAxNzYsNjE3LjcwMzEgTDE4Niw2MTcuNzAzMSAiIGZpbGw9Im5vbmUiIHN0eWxlPSJzdHJva2U6IzE4MTgxODtzdHJva2Utd2lkdGg6MS4wOyIvPjxyZWN0IGZpbGw9IiNGMUYxRjEiIGhlaWdodD0iMzIuODQzOCIgcng9IjEyLjUiIHJ5PSIxMi41IiBzdHlsZT0ic3Ryb2tlOiMxODE4MTg7c3Ryb2tlLXdpZHRoOjEuNTsiIHdpZHRoPSIzMDEiIHg9IjE4NiIgeT0iNjU0LjEyNSIvPjx0ZXh0IGZpbGw9IiMwMDAwMDAiIGZvbnQtZmFtaWx5PSJzYW5zLXNlcmlmIiBmb250LXNpemU9IjEyIiBsZW5ndGhBZGp1c3Q9InNwYWNpbmciIHRleHRMZW5ndGg9IjI4MSIgeD0iMTk2IiB5PSI2NzUuNDY4OCI+RGlzdGlsbGluZyBTdGVwLWJ5LVN0ZXAgW0hzaWNoIGV0IGFsLiwgMjAyM108L3RleHQ+PHBhdGggZD0iTTEzNiw3MjMuMzkwNiBMMTQ2LDcyMy4zOTA2IEMxNjEsNzIzLjM5MDYgMTYxLDY3MC41NDY5IDE3Niw2NzAuNTQ2OSBMMTg2LDY3MC41NDY5ICIgZmlsbD0ibm9uZSIgc3R5bGU9InN0cm9rZTojMTgxODE4O3N0cm9rZS13aWR0aDoxLjA7Ii8+PHJlY3QgZmlsbD0iI0YxRjFGMSIgaGVpZ2h0PSIzMi44NDM4IiByeD0iMTIuNSIgcnk9IjEyLjUiIHN0eWxlPSJzdHJva2U6IzE4MTgxODtzdHJva2Utd2lkdGg6MS41OyIgd2lkdGg9IjI1MyIgeD0iMTg2IiB5PSI3MDYuOTY4OCIvPjx0ZXh0IGZpbGw9IiMwMDAwMDAiIGZvbnQtZmFtaWx5PSJzYW5zLXNlcmlmIiBmb250LXNpemU9IjEyIiBsZW5ndGhBZGp1c3Q9InNwYWNpbmciIHRleHRMZW5ndGg9IjIzMyIgeD0iMTk2IiB5PSI3MjguMzEyNSI+U09DUkFUSUMgQ29UIFtTaHJpZGhhciBldCBhbC4sIDIwMjNdPC90ZXh0PjxwYXRoIGQ9Ik0xMzYsNzIzLjM5MDYgTDE0Niw3MjMuMzkwNiBDMTYxLDcyMy4zOTA2IDE2MSw3MjMuMzkwNiAxNzYsNzIzLjM5MDYgTDE4Niw3MjMuMzkwNiAiIGZpbGw9Im5vbmUiIHN0eWxlPSJzdHJva2U6IzE4MTgxODtzdHJva2Utd2lkdGg6MS4wOyIvPjxyZWN0IGZpbGw9IiNGMUYxRjEiIGhlaWdodD0iMzIuODQzOCIgcng9IjEyLjUiIHJ5PSIxMi41IiBzdHlsZT0ic3Ryb2tlOiMxODE4MTg7c3Ryb2tlLXdpZHRoOjEuNTsiIHdpZHRoPSIxNjAiIHg9IjE4NiIgeT0iNzU5LjgxMjUiLz48dGV4dCBmaWxsPSIjMDAwMDAwIiBmb250LWZhbWlseT0ic2Fucy1zZXJpZiIgZm9udC1zaXplPSIxMiIgbGVuZ3RoQWRqdXN0PSJzcGFjaW5nIiB0ZXh0TGVuZ3RoPSIxNDAiIHg9IjE5NiIgeT0iNzgxLjE1NjMiPlBhRCBbWmh1IGV0IGFsLiwgMjAyM108L3RleHQ+PHBhdGggZD0iTTEzNiw3MjMuMzkwNiBMMTQ2LDcyMy4zOTA2IEMxNjEsNzIzLjM5MDYgMTYxLDc3Ni4yMzQ0IDE3Niw3NzYuMjM0NCBMMTg2LDc3Ni4yMzQ0ICIgZmlsbD0ibm9uZSIgc3R5bGU9InN0cm9rZTojMTgxODE4O3N0cm9rZS13aWR0aDoxLjA7Ii8+PHJlY3QgZmlsbD0iI0YxRjFGMSIgaGVpZ2h0PSIzMi44NDM4IiByeD0iMTIuNSIgcnk9IjEyLjUiIHN0eWxlPSJzdHJva2U6IzE4MTgxODtzdHJva2Utd2lkdGg6MS41OyIgd2lkdGg9IjE3OSIgeD0iMTg2IiB5PSI4MTIuNjU2MyIvPjx0ZXh0IGZpbGw9IiMwMDAwMDAiIGZvbnQtZmFtaWx5PSJzYW5zLXNlcmlmIiBmb250LXNpemU9IjEyIiBsZW5ndGhBZGp1c3Q9InNwYWNpbmciIHRleHRMZW5ndGg9IjE1OSIgeD0iMTk2IiB5PSI4MzQiPkxNVFdBIFtTYWhhIGV0IGFsLiwgMjAyM108L3RleHQ+PHBhdGggZD0iTTEzNiw3MjMuMzkwNiBMMTQ2LDcyMy4zOTA2IEMxNjEsNzIzLjM5MDYgMTYxLDgyOS4wNzgxIDE3Niw4MjkuMDc4MSBMMTg2LDgyOS4wNzgxICIgZmlsbD0ibm9uZSIgc3R5bGU9InN0cm9rZTojMTgxODE4O3N0cm9rZS13aWR0aDoxLjA7Ii8+PHJlY3QgZmlsbD0iI0YxRjFGMSIgaGVpZ2h0PSIzMi44NDM4IiByeD0iMTIuNSIgcnk9IjEyLjUiIHN0eWxlPSJzdHJva2U6IzE4MTgxODtzdHJva2Utd2lkdGg6MS41OyIgd2lkdGg9IjE1NiIgeD0iMTAiIHk9Ijg5MS45MjE5Ii8+PHRleHQgZmlsbD0iIzAwMDAwMCIgZm9udC1mYW1pbHk9InNhbnMtc2VyaWYiIGZvbnQtc2l6ZT0iMTIiIGxlbmd0aEFkanVzdD0ic3BhY2luZyIgdGV4dExlbmd0aD0iMTM2IiB4PSIyMCIgeT0iOTEzLjI2NTYiPkluc3RydWN0aW9uIEZvbGxvd2luZzwvdGV4dD48cmVjdCBmaWxsPSIjRjFGMUYxIiBoZWlnaHQ9IjMyLjg0MzgiIHJ4PSIxMi41IiByeT0iMTIuNSIgc3R5bGU9InN0cm9rZTojMTgxODE4O3N0cm9rZS13aWR0aDoxLjU7IiB3aWR0aD0iMTc3IiB4PSIyMTYiIHk9Ijg2NS41Ii8+PHRleHQgZmlsbD0iIzAwMDAwMCIgZm9udC1mYW1pbHk9InNhbnMtc2VyaWYiIGZvbnQtc2l6ZT0iMTIiIGxlbmd0aEFkanVzdD0ic3BhY2luZyIgdGV4dExlbmd0aD0iMTU3IiB4PSIyMjYiIHk9Ijg4Ni44NDM4Ij5MaW9uIFtKaWFuZyBldCBhbC4sIDIwMjNdPC90ZXh0PjxwYXRoIGQ9Ik0xNjYsOTA4LjM0MzggTDE3Niw5MDguMzQzOCBDMTkxLDkwOC4zNDM4IDE5MSw4ODEuOTIxOSAyMDYsODgxLjkyMTkgTDIxNiw4ODEuOTIxOSAiIGZpbGw9Im5vbmUiIHN0eWxlPSJzdHJva2U6IzE4MTgxODtzdHJva2Utd2lkdGg6MS4wOyIvPjxyZWN0IGZpbGw9IiNGMUYxRjEiIGhlaWdodD0iMzIuODQzOCIgcng9IjEyLjUiIHJ5PSIxMi41IiBzdHlsZT0ic3Ryb2tlOiMxODE4MTg7c3Ryb2tlLXdpZHRoOjEuNTsiIHdpZHRoPSIxOTAiIHg9IjIxNiIgeT0iOTE4LjM0MzgiLz48dGV4dCBmaWxsPSIjMDAwMDAwIiBmb250LWZhbWlseT0ic2Fucy1zZXJpZiIgZm9udC1zaXplPSIxMiIgbGVuZ3RoQWRqdXN0PSJzcGFjaW5nIiB0ZXh0TGVuZ3RoPSIxNzAiIHg9IjIyNiIgeT0iOTM5LjY4NzUiPkxhTWluaS1MTSBbV3UgZXQgYWwuLCAyMDIzXTwvdGV4dD48cGF0aCBkPSJNMTY2LDkwOC4zNDM4IEwxNzYsOTA4LjM0MzggQzE5MSw5MDguMzQzOCAxOTEsOTM0Ljc2NTYgMjA2LDkzNC43NjU2IEwyMTYsOTM0Ljc2NTYgIiBmaWxsPSJub25lIiBzdHlsZT0ic3Ryb2tlOiMxODE4MTg7c3Ryb2tlLXdpZHRoOjEuMDsiLz48cmVjdCBmaWxsPSIjRjFGMUYxIiBoZWlnaHQ9IjMyLjg0MzgiIHJ4PSIxMi41IiByeT0iMTIuNSIgc3R5bGU9InN0cm9rZTojMTgxODE4O3N0cm9rZS13aWR0aDoxLjU7IiB3aWR0aD0iMTk4IiB4PSIxMCIgeT0iMTAyNC4wMzEzIi8+PHRleHQgZmlsbD0iIzAwMDAwMCIgZm9udC1mYW1pbHk9InNhbnMtc2VyaWYiIGZvbnQtc2l6ZT0iMTIiIGxlbmd0aEFkanVzdD0ic3BhY2luZyIgdGV4dExlbmd0aD0iMTc4IiB4PSIyMCIgeT0iMTA0NS4zNzUiPlF1YW50aXphdGlvbi1Bd2FyZSBUcmFpbmluZzwvdGV4dD48cmVjdCBmaWxsPSIjRjFGMUYxIiBoZWlnaHQ9IjMyLjg0MzgiIHJ4PSIxMi41IiByeT0iMTIuNSIgc3R5bGU9InN0cm9rZTojMTgxODE4O3N0cm9rZS13aWR0aDoxLjU7IiB3aWR0aD0iMTgyIiB4PSIyNTgiIHk9Ijk3MS4xODc1Ii8+PHRleHQgZmlsbD0iIzAwMDAwMCIgZm9udC1mYW1pbHk9InNhbnMtc2VyaWYiIGZvbnQtc2l6ZT0iMTIiIGxlbmd0aEFkanVzdD0ic3BhY2luZyIgdGV4dExlbmd0aD0iMTYyIiB4PSIyNjgiIHk9Ijk5Mi41MzEzIj5MTE0tUUFUIFtMaXUgZXQgYWwuLCAyMDIzXTwvdGV4dD48cGF0aCBkPSJNMjA4LDEwNDAuNDUzMSBMMjE4LDEwNDAuNDUzMSBDMjMzLDEwNDAuNDUzMSAyMzMsOTg3LjYwOTQgMjQ4LDk4Ny42MDk0IEwyNTgsOTg3LjYwOTQgIiBmaWxsPSJub25lIiBzdHlsZT0ic3Ryb2tlOiMxODE4MTg7c3Ryb2tlLXdpZHRoOjEuMDsiLz48cmVjdCBmaWxsPSIjRjFGMUYxIiBoZWlnaHQ9IjMyLjg0MzgiIHJ4PSIxMi41IiByeT0iMTIuNSIgc3R5bGU9InN0cm9rZTojMTgxODE4O3N0cm9rZS13aWR0aDoxLjU7IiB3aWR0aD0iMTYzIiB4PSIyNTgiIHk9IjEwMjQuMDMxMyIvPjx0ZXh0IGZpbGw9IiMwMDAwMDAiIGZvbnQtZmFtaWx5PSJzYW5zLXNlcmlmIiBmb250LXNpemU9IjEyIiBsZW5ndGhBZGp1c3Q9InNwYWNpbmciIHRleHRMZW5ndGg9IjE0MyIgeD0iMjY4IiB5PSIxMDQ1LjM3NSI+UEVRQSBbS2ltIGV0IGFsLiwgMjAyM108L3RleHQ+PHBhdGggZD0iTTIwOCwxMDQwLjQ1MzEgTDIxOCwxMDQwLjQ1MzEgQzIzMywxMDQwLjQ1MzEgMjMzLDEwNDAuNDUzMSAyNDgsMTA0MC40NTMxIEwyNTgsMTA0MC40NTMxICIgZmlsbD0ibm9uZSIgc3R5bGU9InN0cm9rZTojMTgxODE4O3N0cm9rZS13aWR0aDoxLjA7Ii8+PHJlY3QgZmlsbD0iI0YxRjFGMSIgaGVpZ2h0PSIzMi44NDM4IiByeD0iMTIuNSIgcnk9IjEyLjUiIHN0eWxlPSJzdHJva2U6IzE4MTgxODtzdHJva2Utd2lkdGg6MS41OyIgd2lkdGg9IjIwMyIgeD0iMjU4IiB5PSIxMDc2Ljg3NSIvPjx0ZXh0IGZpbGw9IiMwMDAwMDAiIGZvbnQtZmFtaWx5PSJzYW5zLXNlcmlmIiBmb250LXNpemU9IjEyIiBsZW5ndGhBZGp1c3Q9InNwYWNpbmciIHRleHRMZW5ndGg9IjE4MyIgeD0iMjY4IiB5PSIxMDk4LjIxODgiPlFMT1JBIFtEY2xsbWNycyBldCBhbC4sIDIwMjNdPC90ZXh0PjxwYXRoIGQ9Ik0yMDgsMTA0MC40NTMxIEwyMTgsMTA0MC40NTMxIEMyMzMsMTA0MC40NTMxIDIzMywxMDkzLjI5NjkgMjQ4LDEwOTMuMjk2OSBMMjU4LDEwOTMuMjk2OSAiIGZpbGw9Im5vbmUiIHN0eWxlPSJzdHJva2U6IzE4MTgxODtzdHJva2Utd2lkdGg6MS4wOyIvPjxyZWN0IGZpbGw9IiNGMUYxRjEiIGhlaWdodD0iMzIuODQzOCIgcng9IjEyLjUiIHJ5PSIxMi41IiBzdHlsZT0ic3Ryb2tlOiMxODE4MTg7c3Ryb2tlLXdpZHRoOjEuNTsiIHdpZHRoPSI5OSIgeD0iMTAiIHk9IjE2MDUuMzEyNSIvPjx0ZXh0IGZpbGw9IiMwMDAwMDAiIGZvbnQtZmFtaWx5PSJzYW5zLXNlcmlmIiBmb250LXNpemU9IjEyIiBsZW5ndGhBZGp1c3Q9InNwYWNpbmciIHRleHRMZW5ndGg9Ijc5IiB4PSIyMCIgeT0iMTYyNi42NTYzIj5RdWFudGl6YXRpb248L3RleHQ+PHJlY3QgZmlsbD0iI0YxRjFGMSIgaGVpZ2h0PSIzMi44NDM4IiByeD0iMTIuNSIgcnk9IjEyLjUiIHN0eWxlPSJzdHJva2U6IzE4MTgxODtzdHJva2Utd2lkdGg6MS41OyIgd2lkdGg9IjE0NSIgeD0iMTU5IiB5PSIxMjg4LjI1Ii8+PHRleHQgZmlsbD0iIzAwMDAwMCIgZm9udC1mYW1pbHk9InNhbnMtc2VyaWYiIGZvbnQtc2l6ZT0iMTIiIGxlbmd0aEFkanVzdD0ic3BhY2luZyIgdGV4dExlbmd0aD0iMTI1IiB4PSIxNjkiIHk9IjEzMDkuNTkzOCI+V2VpZ2h0IFF1YW50aXphdGlvbjwvdGV4dD48cmVjdCBmaWxsPSIjRjFGMUYxIiBoZWlnaHQ9IjMyLjg0MzgiIHJ4PSIxMi41IiByeT0iMTIuNSIgc3R5bGU9InN0cm9rZTojMTgxODE4O3N0cm9rZS13aWR0aDoxLjU7IiB3aWR0aD0iMTkyIiB4PSIzNTQiIHk9IjExMjkuNzE4OCIvPjx0ZXh0IGZpbGw9IiMwMDAwMDAiIGZvbnQtZmFtaWx5PSJzYW5zLXNlcmlmIiBmb250LXNpemU9IjEyIiBsZW5ndGhBZGp1c3Q9InNwYWNpbmciIHRleHRMZW5ndGg9IjE3MiIgeD0iMzY0IiB5PSIxMTUxLjA2MjUiPkdQVFEgW0ZyYW50YXIgZXQgYWwuLCAyMDIyXTwvdGV4dD48cGF0aCBkPSJNMzA0LDEzMDQuNjcxOSBMMzE0LDEzMDQuNjcxOSBDMzI5LDEzMDQuNjcxOSAzMjksMTE0Ni4xNDA2IDM0NCwxMTQ2LjE0MDYgTDM1NCwxMTQ2LjE0MDYgIiBmaWxsPSJub25lIiBzdHlsZT0ic3Ryb2tlOiMxODE4MTg7c3Ryb2tlLXdpZHRoOjEuMDsiLz48cmVjdCBmaWxsPSIjRjFGMUYxIiBoZWlnaHQ9IjMyLjg0MzgiIHJ4PSIxMi41IiByeT0iMTIuNSIgc3R5bGU9InN0cm9rZTojMTgxODE4O3N0cm9rZS13aWR0aDoxLjU7IiB3aWR0aD0iMTU4IiB4PSIzNTQiIHk9IjExODIuNTYyNSIvPjx0ZXh0IGZpbGw9IiMwMDAwMDAiIGZvbnQtZmFtaWx5PSJzYW5zLXNlcmlmIiBmb250LXNpemU9IjEyIiBsZW5ndGhBZGp1c3Q9InNwYWNpbmciIHRleHRMZW5ndGg9IjEzOCIgeD0iMzY0IiB5PSIxMjAzLjkwNjMiPkFXUSBbTGluIGV0IGFsLiwgMjAyM108L3RleHQ+PHBhdGggZD0iTTMwNCwxMzA0LjY3MTkgTDMxNCwxMzA0LjY3MTkgQzMyOSwxMzA0LjY3MTkgMzI5LDExOTguOTg0NCAzNDQsMTE5OC45ODQ0IEwzNTQsMTE5OC45ODQ0ICIgZmlsbD0ibm9uZSIgc3R5bGU9InN0cm9rZTojMTgxODE4O3N0cm9rZS13aWR0aDoxLjA7Ii8+PHJlY3QgZmlsbD0iI0YxRjFGMSIgaGVpZ2h0PSIzMi44NDM4IiByeD0iMTIuNSIgcnk9IjEyLjUiIHN0eWxlPSJzdHJva2U6IzE4MTgxODtzdHJva2Utd2lkdGg6MS41OyIgd2lkdGg9IjE1OSIgeD0iMzU0IiB5PSIxMjM1LjQwNjMiLz48dGV4dCBmaWxsPSIjMDAwMDAwIiBmb250LWZhbWlseT0ic2Fucy1zZXJpZiIgZm9udC1zaXplPSIxMiIgbGVuZ3RoQWRqdXN0PSJzcGFjaW5nIiB0ZXh0TGVuZ3RoPSIxMzkiIHg9IjM2NCIgeT0iMTI1Ni43NSI+T1dRIFtMZWUgZXQgYWwuLCAyMDIzXTwvdGV4dD48cGF0aCBkPSJNMzA0LDEzMDQuNjcxOSBMMzE0LDEzMDQuNjcxOSBDMzI5LDEzMDQuNjcxOSAzMjksMTI1MS44MjgxIDM0NCwxMjUxLjgyODEgTDM1NCwxMjUxLjgyODEgIiBmaWxsPSJub25lIiBzdHlsZT0ic3Ryb2tlOiMxODE4MTg7c3Ryb2tlLXdpZHRoOjEuMDsiLz48cmVjdCBmaWxsPSIjRjFGMUYxIiBoZWlnaHQ9IjMyLjg0MzgiIHJ4PSIxMi41IiByeT0iMTIuNSIgc3R5bGU9InN0cm9rZTojMTgxODE4O3N0cm9rZS13aWR0aDoxLjU7IiB3aWR0aD0iMTk5IiB4PSIzNTQiIHk9IjEyODguMjUiLz48dGV4dCBmaWxsPSIjMDAwMDAwIiBmb250LWZhbWlseT0ic2Fucy1zZXJpZiIgZm9udC1zaXplPSIxMiIgbGVuZ3RoQWRqdXN0PSJzcGFjaW5nIiB0ZXh0TGVuZ3RoPSIxNzkiIHg9IjM2NCIgeT0iMTMwOS41OTM4Ij5TcFFSIFtEZXR0bWVycyBldCBhbC4sIDIwMjNdPC90ZXh0PjxwYXRoIGQ9Ik0zMDQsMTMwNC42NzE5IEwzMTQsMTMwNC42NzE5IEMzMjksMTMwNC42NzE5IDMyOSwxMzA0LjY3MTkgMzQ0LDEzMDQuNjcxOSBMMzU0LDEzMDQuNjcxOSAiIGZpbGw9Im5vbmUiIHN0eWxlPSJzdHJva2U6IzE4MTgxODtzdHJva2Utd2lkdGg6MS4wOyIvPjxyZWN0IGZpbGw9IiNGMUYxRjEiIGhlaWdodD0iMzIuODQzOCIgcng9IjEyLjUiIHJ5PSIxMi41IiBzdHlsZT0ic3Ryb2tlOiMxODE4MTg7c3Ryb2tlLXdpZHRoOjEuNTsiIHdpZHRoPSIyMDMiIHg9IjM1NCIgeT0iMTM0MS4wOTM4Ii8+PHRleHQgZmlsbD0iIzAwMDAwMCIgZm9udC1mYW1pbHk9InNhbnMtc2VyaWYiIGZvbnQtc2l6ZT0iMTIiIGxlbmd0aEFkanVzdD0ic3BhY2luZyIgdGV4dExlbmd0aD0iMTgzIiB4PSIzNjQiIHk9IjEzNjIuNDM3NSI+U3F1ZWV6ZUxMTSBbS2ltIGV0IGFsLiwgMjAyM108L3RleHQ+PHBhdGggZD0iTTMwNCwxMzA0LjY3MTkgTDMxNCwxMzA0LjY3MTkgQzMyOSwxMzA0LjY3MTkgMzI5LDEzNTcuNTE1NiAzNDQsMTM1Ny41MTU2IEwzNTQsMTM1Ny41MTU2ICIgZmlsbD0ibm9uZSIgc3R5bGU9InN0cm9rZTojMTgxODE4O3N0cm9rZS13aWR0aDoxLjA7Ii8+PHJlY3QgZmlsbD0iI0YxRjFGMSIgaGVpZ2h0PSIzMi44NDM4IiByeD0iMTIuNSIgcnk9IjEyLjUiIHN0eWxlPSJzdHJva2U6IzE4MTgxODtzdHJva2Utd2lkdGg6MS41OyIgd2lkdGg9IjE3MyIgeD0iMzU0IiB5PSIxMzkzLjkzNzUiLz48dGV4dCBmaWxsPSIjMDAwMDAwIiBmb250LWZhbWlseT0ic2Fucy1zZXJpZiIgZm9udC1zaXplPSIxMiIgbGVuZ3RoQWRqdXN0PSJzcGFjaW5nIiB0ZXh0TGVuZ3RoPSIxNTMiIHg9IjM2NCIgeT0iMTQxNS4yODEzIj5RdWxQIFtDaGVlIGV0IGFsLiwgMjAyM108L3RleHQ+PHBhdGggZD0iTTMwNCwxMzA0LjY3MTkgTDMxNCwxMzA0LjY3MTkgQzMyOSwxMzA0LjY3MTkgMzI5LDE0MTAuMzU5NCAzNDQsMTQxMC4zNTk0IEwzNTQsMTQxMC4zNTk0ICIgZmlsbD0ibm9uZSIgc3R5bGU9InN0cm9rZTojMTgxODE4O3N0cm9rZS13aWR0aDoxLjA7Ii8+PHJlY3QgZmlsbD0iI0YxRjFGMSIgaGVpZ2h0PSIzMi44NDM4IiByeD0iMTIuNSIgcnk9IjEyLjUiIHN0eWxlPSJzdHJva2U6IzE4MTgxODtzdHJva2Utd2lkdGg6MS41OyIgd2lkdGg9IjIxNSIgeD0iMzU0IiB5PSIxNDQ2Ljc4MTMiLz48dGV4dCBmaWxsPSIjMDAwMDAwIiBmb250LWZhbWlseT0ic2Fucy1zZXJpZiIgZm9udC1zaXplPSIxMiIgbGVuZ3RoQWRqdXN0PSJzcGFjaW5nIiB0ZXh0TGVuZ3RoPSIxOTUiIHg9IjM2NCIgeT0iMTQ2OC4xMjUiPlNpZ25Sb3VuZCBbQ2hlbmcgZXQgYWwuLCAyMDIzXTwvdGV4dD48cGF0aCBkPSJNMzA0LDEzMDQuNjcxOSBMMzE0LDEzMDQuNjcxOSBDMzI5LDEzMDQuNjcxOSAzMjksMTQ2My4yMDMxIDM0NCwxNDYzLjIwMzEgTDM1NCwxNDYzLjIwMzEgIiBmaWxsPSJub25lIiBzdHlsZT0ic3Ryb2tlOiMxODE4MTg7c3Ryb2tlLXdpZHRoOjEuMDsiLz48cGF0aCBkPSJNMTA5LDE2MjEuNzM0NCBMMTE5LDE2MjEuNzM0NCBDMTM0LDE2MjEuNzM0NCAxMzQsMTMwNC42NzE5IDE0OSwxMzA0LjY3MTkgTDE1OSwxMzA0LjY3MTkgIiBmaWxsPSJub25lIiBzdHlsZT0ic3Ryb2tlOiMxODE4MTg7c3Ryb2tlLXdpZHRoOjEuMDsiLz48cmVjdCBmaWxsPSIjRjFGMUYxIiBoZWlnaHQ9IjMyLjg0MzgiIHJ4PSIxMi41IiByeT0iMTIuNSIgc3R5bGU9InN0cm9rZTojMTgxODE4O3N0cm9rZS13aWR0aDoxLjU7IiB3aWR0aD0iMTkxIiB4PSIxNTkiIHk9IjE3OTAuMjY1NiIvPjx0ZXh0IGZpbGw9IiMwMDAwMDAiIGZvbnQtZmFtaWx5PSJzYW5zLXNlcmlmIiBmb250LXNpemU9IjEyIiBsZW5ndGhBZGp1c3Q9InNwYWNpbmciIHRleHRMZW5ndGg9IjE3MSIgeD0iMTY5IiB5PSIxODExLjYwOTQiPlBvc3QtVHJhaW5pbmcgUXVhbnRpemF0aW9uPC90ZXh0PjxyZWN0IGZpbGw9IiNGMUYxRjEiIGhlaWdodD0iMzIuODQzOCIgcng9IjEyLjUiIHJ5PSIxMi41IiBzdHlsZT0ic3Ryb2tlOiMxODE4MTg7c3Ryb2tlLXdpZHRoOjEuNTsiIHdpZHRoPSIyMDEiIHg9IjQwMCIgeT0iMTQ5OS42MjUiLz48dGV4dCBmaWxsPSIjMDAwMDAwIiBmb250LWZhbWlseT0ic2Fucy1zZXJpZiIgZm9udC1zaXplPSIxMiIgbGVuZ3RoQWRqdXN0PSJzcGFjaW5nIiB0ZXh0TGVuZ3RoPSIxODEiIHg9IjQxMCIgeT0iMTUyMC45Njg4Ij5aZXJvUXVhbnQgW1lhbyBldCBhbC4sIDIwMjJdPC90ZXh0PjxwYXRoIGQ9Ik0zNTAsMTgwNi42ODc1IEwzNjAsMTgwNi42ODc1IEMzNzUsMTgwNi42ODc1IDM3NSwxNTE2LjA0NjkgMzkwLDE1MTYuMDQ2OSBMNDAwLDE1MTYuMDQ2OSAiIGZpbGw9Im5vbmUiIHN0eWxlPSJzdHJva2U6IzE4MTgxODtzdHJva2Utd2lkdGg6MS4wOyIvPjxyZWN0IGZpbGw9IiNGMUYxRjEiIGhlaWdodD0iMzIuODQzOCIgcng9IjEyLjUiIHJ5PSIxMi41IiBzdHlsZT0ic3Ryb2tlOiMxODE4MTg7c3Ryb2tlLXdpZHRoOjEuNTsiIHdpZHRoPSIyMTkiIHg9IjQwMCIgeT0iMTU1Mi40Njg4Ii8+PHRleHQgZmlsbD0iIzAwMDAwMCIgZm9udC1mYW1pbHk9InNhbnMtc2VyaWYiIGZvbnQtc2l6ZT0iMTIiIGxlbmd0aEFkanVzdD0ic3BhY2luZyIgdGV4dExlbmd0aD0iMTk5IiB4PSI0MTAiIHk9IjE1NzMuODEyNSI+U21vb3RoUXVhbnQgW1hpYW8gZXQgYWwuLCAyMDIyXTwvdGV4dD48cGF0aCBkPSJNMzUwLDE4MDYuNjg3NSBMMzYwLDE4MDYuNjg3NSBDMzc1LDE4MDYuNjg3NSAzNzUsMTU2OC44OTA2IDM5MCwxNTY4Ljg5MDYgTDQwMCwxNTY4Ljg5MDYgIiBmaWxsPSJub25lIiBzdHlsZT0ic3Ryb2tlOiMxODE4MTg7c3Ryb2tlLXdpZHRoOjEuMDsiLz48cmVjdCBmaWxsPSIjRjFGMUYxIiBoZWlnaHQ9IjMyLjg0MzgiIHJ4PSIxMi41IiByeT0iMTIuNSIgc3R5bGU9InN0cm9rZTojMTgxODE4O3N0cm9rZS13aWR0aDoxLjU7IiB3aWR0aD0iMTczIiB4PSI0MDAiIHk9IjE2MDUuMzEyNSIvPjx0ZXh0IGZpbGw9IiMwMDAwMDAiIGZvbnQtZmFtaWx5PSJzYW5zLXNlcmlmIiBmb250LXNpemU9IjEyIiBsZW5ndGhBZGp1c3Q9InNwYWNpbmciIHRleHRMZW5ndGg9IjE1MyIgeD0iNDEwIiB5PSIxNjI2LjY1NjMiPlJQVFEgW1l1YW4gZXQgYWwuLCAyMDIzXTwvdGV4dD48cGF0aCBkPSJNMzUwLDE4MDYuNjg3NSBMMzYwLDE4MDYuNjg3NSBDMzc1LDE4MDYuNjg3NSAzNzUsMTYyMS43MzQ0IDM5MCwxNjIxLjczNDQgTDQwMCwxNjIxLjczNDQgIiBmaWxsPSJub25lIiBzdHlsZT0ic3Ryb2tlOiMxODE4MTg7c3Ryb2tlLXdpZHRoOjEuMDsiLz48cmVjdCBmaWxsPSIjRjFGMUYxIiBoZWlnaHQ9IjMyLjg0MzgiIHJ4PSIxMi41IiByeT0iMTIuNSIgc3R5bGU9InN0cm9rZTojMTgxODE4O3N0cm9rZS13aWR0aDoxLjU7IiB3aWR0aD0iMTcyIiB4PSI0MDAiIHk9IjE2NTguMTU2MyIvPjx0ZXh0IGZpbGw9IiMwMDAwMDAiIGZvbnQtZmFtaWx5PSJzYW5zLXNlcmlmIiBmb250LXNpemU9IjEyIiBsZW5ndGhBZGp1c3Q9InNwYWNpbmciIHRleHRMZW5ndGg9IjE1MiIgeD0iNDEwIiB5PSIxNjc5LjUiPk9saVZlIFtHdW8gZXQgYWwuLCAyMDIzXTwvdGV4dD48cGF0aCBkPSJNMzUwLDE4MDYuNjg3NSBMMzYwLDE4MDYuNjg3NSBDMzc1LDE4MDYuNjg3NSAzNzUsMTY3NC41NzgxIDM5MCwxNjc0LjU3ODEgTDQwMCwxNjc0LjU3ODEgIiBmaWxsPSJub25lIiBzdHlsZT0ic3Ryb2tlOiMxODE4MTg7c3Ryb2tlLXdpZHRoOjEuMDsiLz48cmVjdCBmaWxsPSIjRjFGMUYxIiBoZWlnaHQ9IjMyLjg0MzgiIHJ4PSIxMi41IiByeT0iMTIuNSIgc3R5bGU9InN0cm9rZTojMTgxODE4O3N0cm9rZS13aWR0aDoxLjU7IiB3aWR0aD0iMjIwIiB4PSI0MDAiIHk9IjE3MTEiLz48dGV4dCBmaWxsPSIjMDAwMDAwIiBmb250LWZhbWlseT0ic2Fucy1zZXJpZiIgZm9udC1zaXplPSIxMiIgbGVuZ3RoQWRqdXN0PSJzcGFjaW5nIiB0ZXh0TGVuZ3RoPSIyMDAiIHg9IjQxMCIgeT0iMTczMi4zNDM4Ij5aZXJvUXVhbnQtVjIgW1lhbyBldCBhbC4sIDIwMjNdPC90ZXh0PjxwYXRoIGQ9Ik0zNTAsMTgwNi42ODc1IEwzNjAsMTgwNi42ODc1IEMzNzUsMTgwNi42ODc1IDM3NSwxNzI3LjQyMTkgMzkwLDE3MjcuNDIxOSBMNDAwLDE3MjcuNDIxOSAiIGZpbGw9Im5vbmUiIHN0eWxlPSJzdHJva2U6IzE4MTgxODtzdHJva2Utd2lkdGg6MS4wOyIvPjxyZWN0IGZpbGw9IiNGMUYxRjEiIGhlaWdodD0iMzIuODQzOCIgcng9IjEyLjUiIHJ5PSIxMi41IiBzdHlsZT0ic3Ryb2tlOiMxODE4MTg7c3Ryb2tlLXdpZHRoOjEuNTsiIHdpZHRoPSIyNzIiIHg9IjQwMCIgeT0iMTc2My44NDM4Ii8+PHRleHQgZmlsbD0iIzAwMDAwMCIgZm9udC1mYW1pbHk9InNhbnMtc2VyaWYiIGZvbnQtc2l6ZT0iMTIiIGxlbmd0aEFkanVzdD0ic3BhY2luZyIgdGV4dExlbmd0aD0iMjUyIiB4PSI0MTAiIHk9IjE3ODUuMTg3NSI+T3V0bGllciBTdXBwcmVzc2lvbisgW1dlaSBldCBhbC4sIDIwMjNdPC90ZXh0PjxwYXRoIGQ9Ik0zNTAsMTgwNi42ODc1IEwzNjAsMTgwNi42ODc1IEMzNzUsMTgwNi42ODc1IDM3NSwxNzgwLjI2NTYgMzkwLDE3ODAuMjY1NiBMNDAwLDE3ODAuMjY1NiAiIGZpbGw9Im5vbmUiIHN0eWxlPSJzdHJva2U6IzE4MTgxODtzdHJva2Utd2lkdGg6MS4wOyIvPjxyZWN0IGZpbGw9IiNGMUYxRjEiIGhlaWdodD0iMzIuODQzOCIgcng9IjEyLjUiIHJ5PSIxMi41IiBzdHlsZT0ic3Ryb2tlOiMxODE4MTg7c3Ryb2tlLXdpZHRoOjEuNTsiIHdpZHRoPSIxODAiIHg9IjQwMCIgeT0iMTgxNi42ODc1Ii8+PHRleHQgZmlsbD0iIzAwMDAwMCIgZm9udC1mYW1pbHk9InNhbnMtc2VyaWYiIGZvbnQtc2l6ZT0iMTIiIGxlbmd0aEFkanVzdD0ic3BhY2luZyIgdGV4dExlbmd0aD0iMTYwIiB4PSI0MTAiIHk9IjE4MzguMDMxMyI+TW9GUSBbWmhhbmcgZXQgYWwuLCAyMDIzXTwvdGV4dD48cGF0aCBkPSJNMzUwLDE4MDYuNjg3NSBMMzYwLDE4MDYuNjg3NSBDMzc1LDE4MDYuNjg3NSAzNzUsMTgzMy4xMDk0IDM5MCwxODMzLjEwOTQgTDQwMCwxODMzLjEwOTQgIiBmaWxsPSJub25lIiBzdHlsZT0ic3Ryb2tlOiMxODE4MTg7c3Ryb2tlLXdpZHRoOjEuMDsiLz48cmVjdCBmaWxsPSIjRjFGMUYxIiBoZWlnaHQ9IjMyLjg0MzgiIHJ4PSIxMi41IiByeT0iMTIuNSIgc3R5bGU9InN0cm9rZTojMTgxODE4O3N0cm9rZS13aWR0aDoxLjU7IiB3aWR0aD0iMjEzIiB4PSI0MDAiIHk9IjE4NjkuNTMxMyIvPjx0ZXh0IGZpbGw9IiMwMDAwMDAiIGZvbnQtZmFtaWx5PSJzYW5zLXNlcmlmIiBmb250LXNpemU9IjEyIiBsZW5ndGhBZGp1c3Q9InNwYWNpbmciIHRleHRMZW5ndGg9IjE5MyIgeD0iNDEwIiB5PSIxODkwLjg3NSI+WmVyb1F1YW50LUZQIFtXdSBldCBhbC4sIDIwMjNdPC90ZXh0PjxwYXRoIGQ9Ik0zNTAsMTgwNi42ODc1IEwzNjAsMTgwNi42ODc1IEMzNzUsMTgwNi42ODc1IDM3NSwxODg1Ljk1MzEgMzkwLDE4ODUuOTUzMSBMNDAwLDE4ODUuOTUzMSAiIGZpbGw9Im5vbmUiIHN0eWxlPSJzdHJva2U6IzE4MTgxODtzdHJva2Utd2lkdGg6MS4wOyIvPjxyZWN0IGZpbGw9IiNGMUYxRjEiIGhlaWdodD0iMzIuODQzOCIgcng9IjEyLjUiIHJ5PSIxMi41IiBzdHlsZT0ic3Ryb2tlOiMxODE4MTg7c3Ryb2tlLXdpZHRoOjEuNTsiIHdpZHRoPSIxNTYiIHg9IjQwMCIgeT0iMTkyMi4zNzUiLz48dGV4dCBmaWxsPSIjMDAwMDAwIiBmb250LWZhbWlseT0ic2Fucy1zZXJpZiIgZm9udC1zaXplPSIxMiIgbGVuZ3RoQWRqdXN0PSJzcGFjaW5nIiB0ZXh0TGVuZ3RoPSIxMzYiIHg9IjQxMCIgeT0iMTk0My43MTg4Ij5GUFRRIFtMaSBldCBhbC4sIDIwMjNdPC90ZXh0PjxwYXRoIGQ9Ik0zNTAsMTgwNi42ODc1IEwzNjAsMTgwNi42ODc1IEMzNzUsMTgwNi42ODc1IDM3NSwxOTM4Ljc5NjkgMzkwLDE5MzguNzk2OSBMNDAwLDE5MzguNzk2OSAiIGZpbGw9Im5vbmUiIHN0eWxlPSJzdHJva2U6IzE4MTgxODtzdHJva2Utd2lkdGg6MS4wOyIvPjxyZWN0IGZpbGw9IiNGMUYxRjEiIGhlaWdodD0iMzIuODQzOCIgcng9IjEyLjUiIHJ5PSIxMi41IiBzdHlsZT0ic3Ryb2tlOiMxODE4MTg7c3Ryb2tlLXdpZHRoOjEuNTsiIHdpZHRoPSIyMjAiIHg9IjQwMCIgeT0iMTk3NS4yMTg4Ii8+PHRleHQgZmlsbD0iIzAwMDAwMCIgZm9udC1mYW1pbHk9InNhbnMtc2VyaWYiIGZvbnQtc2l6ZT0iMTIiIGxlbmd0aEFkanVzdD0ic3BhY2luZyIgdGV4dExlbmd0aD0iMjAwIiB4PSI0MTAiIHk9IjE5OTYuNTYyNSI+UXVhbnRFYXNlIFtCZWhkaW4gZXQgYWwuLCAyMDIzXTwvdGV4dD48cGF0aCBkPSJNMzUwLDE4MDYuNjg3NSBMMzYwLDE4MDYuNjg3NSBDMzc1LDE4MDYuNjg3NSAzNzUsMTk5MS42NDA2IDM5MCwxOTkxLjY0MDYgTDQwMCwxOTkxLjY0MDYgIiBmaWxsPSJub25lIiBzdHlsZT0ic3Ryb2tlOiMxODE4MTg7c3Ryb2tlLXdpZHRoOjEuMDsiLz48cmVjdCBmaWxsPSIjRjFGMUYxIiBoZWlnaHQ9IjMyLjg0MzgiIHJ4PSIxMi41IiByeT0iMTIuNSIgc3R5bGU9InN0cm9rZTojMTgxODE4O3N0cm9rZS13aWR0aDoxLjU7IiB3aWR0aD0iMjE0IiB4PSI0MDAiIHk9IjIwMjguMDYyNSIvPjx0ZXh0IGZpbGw9IiMwMDAwMDAiIGZvbnQtZmFtaWx5PSJzYW5zLXNlcmlmIiBmb250LXNpemU9IjEyIiBsZW5ndGhBZGp1c3Q9InNwYWNpbmciIHRleHRMZW5ndGg9IjE5NCIgeD0iNDEwIiB5PSIyMDQ5LjQwNjMiPk5vcm0gVHdjYWtpbmcgW0xpIGV0IGFsLiwgMjAyM108L3RleHQ+PHBhdGggZD0iTTM1MCwxODA2LjY4NzUgTDM2MCwxODA2LjY4NzUgQzM3NSwxODA2LjY4NzUgMzc1LDIwNDQuNDg0NCAzOTAsMjA0NC40ODQ0IEw0MDAsMjA0NC40ODQ0ICIgZmlsbD0ibm9uZSIgc3R5bGU9InN0cm9rZTojMTgxODE4O3N0cm9rZS13aWR0aDoxLjA7Ii8+PHJlY3QgZmlsbD0iI0YxRjFGMSIgaGVpZ2h0PSIzMi44NDM4IiByeD0iMTIuNSIgcnk9IjEyLjUiIHN0eWxlPSJzdHJva2U6IzE4MTgxODtzdHJva2Utd2lkdGg6MS41OyIgd2lkdGg9IjIwNiIgeD0iNDAwIiB5PSIyMDgwLjkwNjMiLz48dGV4dCBmaWxsPSIjMDAwMDAwIiBmb250LWZhbWlseT0ic2Fucy1zZXJpZiIgZm9udC1zaXplPSIxMiIgbGVuZ3RoQWRqdXN0PSJzcGFjaW5nIiB0ZXh0TGVuZ3RoPSIxODYiIHg9IjQxMCIgeT0iMjEwMi4yNSI+T21uaVF1YW50IFtTaGFvIGV0IGFsLiwgMjAyM108L3RleHQ+PHBhdGggZD0iTTM1MCwxODA2LjY4NzUgTDM2MCwxODA2LjY4NzUgQzM3NSwxODA2LjY4NzUgMzc1LDIwOTcuMzI4MSAzOTAsMjA5Ny4zMjgxIEw0MDAsMjA5Ny4zMjgxICIgZmlsbD0ibm9uZSIgc3R5bGU9InN0cm9rZTojMTgxODE4O3N0cm9rZS13aWR0aDoxLjA7Ii8+PHBhdGggZD0iTTEwOSwxNjIxLjczNDQgTDExOSwxNjIxLjczNDQgQzEzNCwxNjIxLjczNDQgMTM0LDE4MDYuNjg3NSAxNDksMTgwNi42ODc1IEwxNTksMTgwNi42ODc1ICIgZmlsbD0ibm9uZSIgc3R5bGU9InN0cm9rZTojMTgxODE4O3N0cm9rZS13aWR0aDoxLjA7Ii8+PHJlY3QgZmlsbD0iI0YxRjFGMSIgaGVpZ2h0PSIzMi44NDM4IiByeD0iMTIuNSIgcnk9IjEyLjUiIHN0eWxlPSJzdHJva2U6IzE4MTgxODtzdHJva2Utd2lkdGg6MS41OyIgd2lkdGg9IjE2MiIgeD0iMTAiIHk9IjIxMzMuNzUiLz48dGV4dCBmaWxsPSIjMDAwMDAwIiBmb250LWZhbWlseT0ic2Fucy1zZXJpZiIgZm9udC1zaXplPSIxMiIgbGVuZ3RoQWRqdXN0PSJzcGFjaW5nIiB0ZXh0TGVuZ3RoPSIxNDIiIHg9IjIwIiB5PSIyMTU1LjA5MzgiPkxvdy1SYW5rIEZhY3Rvcml6YXRpb248L3RleHQ+PHJlY3QgZmlsbD0iI0YxRjFGMSIgaGVpZ2h0PSIzMi44NDM4IiByeD0iMTIuNSIgcnk9IjEyLjUiIHN0eWxlPSJzdHJva2U6IzE4MTgxODtzdHJva2Utd2lkdGg6MS41OyIgd2lkdGg9IjE5MyIgeD0iMjIyIiB5PSIyMTMzLjc1Ii8+PHRleHQgZmlsbD0iIzAwMDAwMCIgZm9udC1mYW1pbHk9InNhbnMtc2VyaWYiIGZvbnQtc2l6ZT0iMTIiIGxlbmd0aEFkanVzdD0ic3BhY2luZyIgdGV4dExlbmd0aD0iMTczIiB4PSIyMzIiIHk9IjIxNTUuMDkzOCI+VGVuc29yR1BUIFtYdSBldCBhbC4sIDIwMjNdPC90ZXh0PjxwYXRoIGQ9Ik0xNzIsMjE1MC4xNzE5IEwxODIsMjE1MC4xNzE5IEMxOTcsMjE1MC4xNzE5IDE5NywyMTUwLjE3MTkgMjEyLDIxNTAuMTcxOSBMMjIyLDIxNTAuMTcxOSAiIGZpbGw9Im5vbmUiIHN0eWxlPSJzdHJva2U6IzE4MTgxODtzdHJva2Utd2lkdGg6MS4wOyIvPjwhLS1TUkM9W1ZMTERTemVtNEJ0eEwtb25mTktjOEtvZGFyQ1RZMmJXMXVFVHFEUkpXc2ZsaTJRc0g2S3ZqRmRyTk1iMm1zMnI1dlpIVmhyei10UnpnVExDd09RQmljNHhodHRhT2lTS1F3MkhHWFFMYVdzMkxYcVVNVGdBYk5CRm5IT1VNRHFVTXN2YllRNEtFa05GMjFWMzRxbENyOU9CazNadGwwNGFnWEVLbVhpQ3U0d3FMQTdHZFNCb3c3cTBBU01zRTRxb280RjUxRTQ0OWFlOFFjdW1MLXpYVTN3eV82dlQ4eGFFSjJYMl9nclkxMHFyaUZoaXM2TDNpR3BvajFDejh3SGswREV4YzA5Q3ZLQjkwWHI5ZW9ac1JMcTVVU25FN0FaRFhQM3g2aWlqbWVIMHl4ZmNjYWpYSWN1Z2hqN184Tl8xT2M5Sm5SRlI2UU0zVkRldjJhcU40eVkzQkxEeExabENNVVhKQkJkQ0F6UGxSb1J5Q09xNVZzYzhhQWNfX0pkVWVKcDIyVmRkeGVKQ2VLcnVOUkZZeUhYeW80Tlh3dXYtbmZCNnpMYXdDQVFmd0l4aS1Zb0RBeVE1Qm5feWg5QlRqajlzOUVEYkhmYXNoYzRVbzNIdUt1cXhfeVRsdF9uSnVQT05iTUUtb180d282UFppRVpJSWw2bzhaTnJfMThzQ0dCZzNtMllFRGk0SFdvTE95Z3A1bUtSb2E5UHJ0T3hSOUdiU1N3VEpLR2l2ZUJ4WGZJRFd2R0xLUV92aW5zNDctb1BHaVdLeU5IOEpTZlIxVEhEbjFybWF2aUxlTHRtZmN6UUhTaXJzSVA1TkpVNVFselZzMmVMRVN0YXo5YWFjTUlocnlxeXJTVzBXaXRBZTFDRUFJb2oyTHFSYlV2TVFxQTdNWlZPR3NTVFZkUThwc1hOblRNV1FRMUU4MXpOeGxueUF6UW9lcGpZRjVucElNSWhfR0ZMX1JRX2VQQnM0VkFsSjNod0pYaWZUVk5ZeWVLeFZUUU1rd19hdXNBZHZsVGV4ZTFoWV93TXotIC03RkdJNzE5c2tFUHNhakRsajVCT2pHTno3OGFGa3k4cmJrRmh0cU5vajVZT0VjVGhMandyNHQzYThZaG5YQkpMcFpMTmZiQ0FqTDByYS11OHo2aFJUVVBRRHUyenlmYk1sT3ktU194c19QazhIR2JQZWdPeDRjdzVlZlJCVmEyLWR3M3lYVlZIVUZkblVLYkYta3BZMjl2QVRNVGtCQ184UWRPdFVmNG4zaTVEbV9XNGtIYlVOYnJWM1N2WjZjS2FvVWtsRHNIRTNUS1NRUVYwQWJaaUt5eWRZeTAwdHVlYWhBSGVLc2ZsVm53eUU3cVItRFRVR2VnOXdTMXp4NHRuV05RcWZlZjM0ckZPQXhrWWVWX0dZNmFwN2pmR1JYSlNjdU1ocmNzcGY3bTAwXS0tPjwvZz48L3N2Zz4=;" parent="1" vertex="1">
            <mxGeometry x="20" y="-795" width="793" height="2188" as="geometry" />
          </mxCell>
        </UserObject>
        <mxCell id="W0Buf2hWyE4xajMn3m7N-1" value="小语言模型（SLM）" style="rounded=1;whiteSpace=wrap;html=1;fillColor=#f5f5f5;fontColor=#333333;strokeColor=#666666;" parent="1" vertex="1">
          <mxGeometry x="354" y="-920" width="120" height="60" as="geometry" />
        </mxCell>
        <mxCell id="W0Buf2hWyE4xajMn3m7N-11" style="edgeStyle=orthogonalEdgeStyle;rounded=0;orthogonalLoop=1;jettySize=auto;html=1;exitX=0.5;exitY=1;exitDx=0;exitDy=0;entryX=0.5;entryY=0;entryDx=0;entryDy=0;" parent="1" source="W0Buf2hWyE4xajMn3m7N-2" target="W0Buf2hWyE4xajMn3m7N-3" edge="1">
          <mxGeometry relative="1" as="geometry">
            <Array as="points">
              <mxPoint x="410" y="-1230" />
              <mxPoint x="150" y="-1230" />
            </Array>
          </mxGeometry>
        </mxCell>
        <mxCell id="W0Buf2hWyE4xajMn3m7N-12" style="edgeStyle=orthogonalEdgeStyle;rounded=0;orthogonalLoop=1;jettySize=auto;html=1;exitX=0.5;exitY=1;exitDx=0;exitDy=0;entryX=0.5;entryY=0;entryDx=0;entryDy=0;" parent="1" source="W0Buf2hWyE4xajMn3m7N-2" target="W0Buf2hWyE4xajMn3m7N-4" edge="1">
          <mxGeometry relative="1" as="geometry">
            <Array as="points">
              <mxPoint x="410" y="-1230" />
              <mxPoint x="655" y="-1230" />
            </Array>
          </mxGeometry>
        </mxCell>
        <mxCell id="W0Buf2hWyE4xajMn3m7N-2" value="大语言模型（LLM）" style="rounded=1;whiteSpace=wrap;html=1;fillColor=#fff2cc;strokeColor=#d6b656;" parent="1" vertex="1">
          <mxGeometry x="350" y="-1315" width="120" height="60" as="geometry" />
        </mxCell>
        <mxCell id="W0Buf2hWyE4xajMn3m7N-14" style="edgeStyle=orthogonalEdgeStyle;rounded=0;orthogonalLoop=1;jettySize=auto;html=1;exitX=0.5;exitY=1;exitDx=0;exitDy=0;entryX=0;entryY=0.5;entryDx=0;entryDy=0;" parent="1" source="W0Buf2hWyE4xajMn3m7N-3" target="W0Buf2hWyE4xajMn3m7N-1" edge="1">
          <mxGeometry relative="1" as="geometry" />
        </mxCell>
        <mxCell id="W0Buf2hWyE4xajMn3m7N-3" value="标准蒸馏（Standard KD）" style="ellipse;whiteSpace=wrap;html=1;fillColor=#f8cecc;strokeColor=#b85450;" parent="1" vertex="1">
          <mxGeometry x="90" y="-1169" width="122" height="80" as="geometry" />
        </mxCell>
        <mxCell id="W0Buf2hWyE4xajMn3m7N-4" value="基于涌现能力的蒸馏（EA-Based KD）" style="ellipse;whiteSpace=wrap;html=1;fillColor=#f8cecc;strokeColor=#b85450;" parent="1" vertex="1">
          <mxGeometry x="595" y="-1170" width="120" height="80" as="geometry" />
        </mxCell>
        <mxCell id="W0Buf2hWyE4xajMn3m7N-5" value="上下文学习（ICL）" style="shape=parallelogram;perimeter=parallelogramPerimeter;whiteSpace=wrap;html=1;fixedSize=1;fillColor=#dae8fc;strokeColor=#6c8ebf;" parent="1" vertex="1">
          <mxGeometry x="440" y="-1035" width="120" height="60" as="geometry" />
        </mxCell>
        <mxCell id="W0Buf2hWyE4xajMn3m7N-6" value="思维链（CoT）" style="shape=parallelogram;perimeter=parallelogramPerimeter;whiteSpace=wrap;html=1;fixedSize=1;fillColor=#dae8fc;strokeColor=#6c8ebf;" parent="1" vertex="1">
          <mxGeometry x="595" y="-1035" width="120" height="60" as="geometry" />
        </mxCell>
        <mxCell id="W0Buf2hWyE4xajMn3m7N-7" value="指令跟随（IF）" style="shape=parallelogram;perimeter=parallelogramPerimeter;whiteSpace=wrap;html=1;fixedSize=1;fillColor=#dae8fc;strokeColor=#6c8ebf;" parent="1" vertex="1">
          <mxGeometry x="740" y="-1035" width="120" height="60" as="geometry" />
        </mxCell>
        <mxCell id="W0Buf2hWyE4xajMn3m7N-9" style="edgeStyle=orthogonalEdgeStyle;rounded=0;orthogonalLoop=1;jettySize=auto;html=1;exitX=1;exitY=0;exitDx=0;exitDy=0;exitPerimeter=0;entryX=0.5;entryY=0;entryDx=0;entryDy=0;" parent="1" source="W0Buf2hWyE4xajMn3m7N-8" target="W0Buf2hWyE4xajMn3m7N-7" edge="1">
          <mxGeometry relative="1" as="geometry" />
        </mxCell>
        <mxCell id="W0Buf2hWyE4xajMn3m7N-8" value="" style="strokeWidth=2;html=1;shape=mxgraph.flowchart.annotation_2;align=left;labelPosition=right;pointerEvents=1;rotation=90;" parent="1" vertex="1">
          <mxGeometry x="630" y="-1210" width="50" height="290" as="geometry" />
        </mxCell>
        <mxCell id="W0Buf2hWyE4xajMn3m7N-10" style="edgeStyle=orthogonalEdgeStyle;rounded=0;orthogonalLoop=1;jettySize=auto;html=1;exitX=1;exitY=1;exitDx=0;exitDy=0;exitPerimeter=0;entryX=0.586;entryY=-0.002;entryDx=0;entryDy=0;entryPerimeter=0;" parent="1" source="W0Buf2hWyE4xajMn3m7N-8" target="W0Buf2hWyE4xajMn3m7N-5" edge="1">
          <mxGeometry relative="1" as="geometry" />
        </mxCell>
        <mxCell id="W0Buf2hWyE4xajMn3m7N-16" style="edgeStyle=orthogonalEdgeStyle;rounded=0;orthogonalLoop=1;jettySize=auto;html=1;exitX=0;exitY=0.5;exitDx=0;exitDy=0;exitPerimeter=0;entryX=1;entryY=0.5;entryDx=0;entryDy=0;" parent="1" source="W0Buf2hWyE4xajMn3m7N-15" target="W0Buf2hWyE4xajMn3m7N-1" edge="1">
          <mxGeometry relative="1" as="geometry" />
        </mxCell>
        <mxCell id="W0Buf2hWyE4xajMn3m7N-15" value="" style="strokeWidth=2;html=1;shape=mxgraph.flowchart.annotation_2;align=left;labelPosition=right;pointerEvents=1;rotation=-90;" parent="1" vertex="1">
          <mxGeometry x="630" y="-1098" width="50" height="300" as="geometry" />
        </mxCell>
        <mxCell id="W0Buf2hWyE4xajMn3m7N-19" style="edgeStyle=orthogonalEdgeStyle;rounded=0;orthogonalLoop=1;jettySize=auto;html=1;exitX=1;exitY=0.5;exitDx=0;exitDy=0;exitPerimeter=0;entryX=0.412;entryY=0.501;entryDx=0;entryDy=0;entryPerimeter=0;endArrow=none;endFill=0;" parent="1" source="W0Buf2hWyE4xajMn3m7N-15" target="W0Buf2hWyE4xajMn3m7N-15" edge="1">
          <mxGeometry relative="1" as="geometry" />
        </mxCell>
        <mxCell id="W0Buf2hWyE4xajMn3m7N-20" style="edgeStyle=orthogonalEdgeStyle;rounded=0;orthogonalLoop=1;jettySize=auto;html=1;exitX=0.5;exitY=0;exitDx=0;exitDy=0;entryX=0.368;entryY=0.499;entryDx=0;entryDy=0;entryPerimeter=0;endArrow=none;endFill=0;" parent="1" source="W0Buf2hWyE4xajMn3m7N-6" target="W0Buf2hWyE4xajMn3m7N-8" edge="1">
          <mxGeometry relative="1" as="geometry" />
        </mxCell>
        <mxCell id="6zSR9lrW0eEH2U1vSe3f-5" value="" style="edgeStyle=orthogonalEdgeStyle;rounded=0;orthogonalLoop=1;jettySize=auto;html=1;" edge="1" parent="1" source="6zSR9lrW0eEH2U1vSe3f-1" target="6zSR9lrW0eEH2U1vSe3f-4">
          <mxGeometry relative="1" as="geometry" />
        </mxCell>
        <mxCell id="6zSR9lrW0eEH2U1vSe3f-1" value="&lt;font style=&quot;font-size: 18px;&quot;&gt;下游任务&lt;/font&gt;" style="rounded=1;whiteSpace=wrap;html=1;fillColor=#fff2cc;strokeColor=#d6b656;" vertex="1" parent="1">
          <mxGeometry x="1044" y="-1203" width="120" height="60" as="geometry" />
        </mxCell>
        <mxCell id="6zSR9lrW0eEH2U1vSe3f-7" value="" style="edgeStyle=orthogonalEdgeStyle;rounded=0;orthogonalLoop=1;jettySize=auto;html=1;" edge="1" parent="1" source="6zSR9lrW0eEH2U1vSe3f-4" target="6zSR9lrW0eEH2U1vSe3f-6">
          <mxGeometry relative="1" as="geometry" />
        </mxCell>
        <mxCell id="6zSR9lrW0eEH2U1vSe3f-4" value="&lt;font style=&quot;font-size: 18px;&quot;&gt;LLMs&lt;/font&gt;" style="whiteSpace=wrap;html=1;rounded=1;fillColor=#1ba1e2;strokeColor=#006EAF;fontColor=#ffffff;" vertex="1" parent="1">
          <mxGeometry x="1281" y="-1203" width="120" height="60" as="geometry" />
        </mxCell>
        <mxCell id="6zSR9lrW0eEH2U1vSe3f-6" value="&lt;font style=&quot;font-size: 18px;&quot;&gt;SLMs&lt;/font&gt;" style="whiteSpace=wrap;html=1;rounded=1;fillColor=#dae8fc;strokeColor=#6c8ebf;" vertex="1" parent="1">
          <mxGeometry x="1735" y="-1203" width="120" height="60" as="geometry" />
        </mxCell>
        <mxCell id="6zSR9lrW0eEH2U1vSe3f-8" value="" style="edgeStyle=orthogonalEdgeStyle;rounded=0;orthogonalLoop=1;jettySize=auto;html=1;" edge="1" parent="1" source="6zSR9lrW0eEH2U1vSe3f-9" target="6zSR9lrW0eEH2U1vSe3f-11">
          <mxGeometry relative="1" as="geometry" />
        </mxCell>
        <mxCell id="6zSR9lrW0eEH2U1vSe3f-9" value="&lt;font style=&quot;font-size: 18px;&quot;&gt;原始数据&lt;/font&gt;" style="rounded=1;whiteSpace=wrap;html=1;fillColor=#FFD966;strokeColor=#d6b656;" vertex="1" parent="1">
          <mxGeometry x="1044" y="-1082" width="120" height="60" as="geometry" />
        </mxCell>
        <mxCell id="6zSR9lrW0eEH2U1vSe3f-10" value="" style="edgeStyle=orthogonalEdgeStyle;rounded=0;orthogonalLoop=1;jettySize=auto;html=1;" edge="1" parent="1" source="6zSR9lrW0eEH2U1vSe3f-11" target="6zSR9lrW0eEH2U1vSe3f-12">
          <mxGeometry relative="1" as="geometry" />
        </mxCell>
        <mxCell id="6zSR9lrW0eEH2U1vSe3f-11" value="&lt;font style=&quot;font-size: 18px;&quot;&gt;LLMs&lt;/font&gt;" style="whiteSpace=wrap;html=1;rounded=1;fillColor=#1ba1e2;strokeColor=#006EAF;fontColor=#ffffff;" vertex="1" parent="1">
          <mxGeometry x="1281" y="-1082" width="120" height="60" as="geometry" />
        </mxCell>
        <mxCell id="6zSR9lrW0eEH2U1vSe3f-21" value="" style="edgeStyle=orthogonalEdgeStyle;rounded=0;orthogonalLoop=1;jettySize=auto;html=1;" edge="1" parent="1" source="6zSR9lrW0eEH2U1vSe3f-12" target="6zSR9lrW0eEH2U1vSe3f-20">
          <mxGeometry relative="1" as="geometry" />
        </mxCell>
        <mxCell id="6zSR9lrW0eEH2U1vSe3f-12" value="&lt;span style=&quot;font-size: 18px;&quot;&gt;解释&lt;/span&gt;" style="whiteSpace=wrap;html=1;rounded=1;fillColor=#d5e8d4;strokeColor=#82b366;" vertex="1" parent="1">
          <mxGeometry x="1525" y="-1082" width="120" height="60" as="geometry" />
        </mxCell>
        <mxCell id="6zSR9lrW0eEH2U1vSe3f-13" value="" style="edgeStyle=orthogonalEdgeStyle;rounded=0;orthogonalLoop=1;jettySize=auto;html=1;" edge="1" parent="1" source="6zSR9lrW0eEH2U1vSe3f-14" target="6zSR9lrW0eEH2U1vSe3f-16">
          <mxGeometry relative="1" as="geometry" />
        </mxCell>
        <mxCell id="6zSR9lrW0eEH2U1vSe3f-14" value="&lt;font style=&quot;font-size: 18px;&quot;&gt;原始数据&lt;/font&gt;" style="rounded=1;whiteSpace=wrap;html=1;fillColor=#FFD966;strokeColor=#d6b656;" vertex="1" parent="1">
          <mxGeometry x="1044" y="-966" width="120" height="60" as="geometry" />
        </mxCell>
        <mxCell id="6zSR9lrW0eEH2U1vSe3f-15" value="" style="edgeStyle=orthogonalEdgeStyle;rounded=0;orthogonalLoop=1;jettySize=auto;html=1;" edge="1" parent="1" source="6zSR9lrW0eEH2U1vSe3f-16" target="6zSR9lrW0eEH2U1vSe3f-17">
          <mxGeometry relative="1" as="geometry" />
        </mxCell>
        <mxCell id="6zSR9lrW0eEH2U1vSe3f-16" value="&lt;font style=&quot;font-size: 18px;&quot;&gt;LLMs&lt;/font&gt;" style="whiteSpace=wrap;html=1;rounded=1;fillColor=#1ba1e2;strokeColor=#006EAF;fontColor=#ffffff;" vertex="1" parent="1">
          <mxGeometry x="1281" y="-966" width="120" height="60" as="geometry" />
        </mxCell>
        <mxCell id="6zSR9lrW0eEH2U1vSe3f-23" value="" style="edgeStyle=orthogonalEdgeStyle;rounded=0;orthogonalLoop=1;jettySize=auto;html=1;" edge="1" parent="1" source="6zSR9lrW0eEH2U1vSe3f-17" target="6zSR9lrW0eEH2U1vSe3f-22">
          <mxGeometry relative="1" as="geometry" />
        </mxCell>
        <mxCell id="6zSR9lrW0eEH2U1vSe3f-17" value="&lt;font style=&quot;font-size: 18px;&quot;&gt;硬指令&lt;/font&gt;" style="whiteSpace=wrap;html=1;rounded=1;fillColor=#d5e8d4;strokeColor=#82b366;" vertex="1" parent="1">
          <mxGeometry x="1525" y="-966" width="120" height="60" as="geometry" />
        </mxCell>
        <mxCell id="6zSR9lrW0eEH2U1vSe3f-19" value="上下文提示微调" style="text;html=1;align=center;verticalAlign=middle;resizable=0;points=[];autosize=1;strokeColor=none;fillColor=none;fontSize=14;" vertex="1" parent="1">
          <mxGeometry x="1169" y="-1202" width="116" height="29" as="geometry" />
        </mxCell>
        <mxCell id="6zSR9lrW0eEH2U1vSe3f-20" value="&lt;font size=&quot;3&quot;&gt;SLMs&lt;/font&gt;" style="whiteSpace=wrap;html=1;rounded=1;fillColor=#dae8fc;strokeColor=#6c8ebf;" vertex="1" parent="1">
          <mxGeometry x="1735" y="-1082" width="120" height="60" as="geometry" />
        </mxCell>
        <mxCell id="6zSR9lrW0eEH2U1vSe3f-22" value="&lt;font style=&quot;font-size: 18px;&quot;&gt;SLMs&lt;/font&gt;" style="whiteSpace=wrap;html=1;rounded=1;fillColor=#dae8fc;strokeColor=#6c8ebf;" vertex="1" parent="1">
          <mxGeometry x="1735" y="-966" width="120" height="60" as="geometry" />
        </mxCell>
        <mxCell id="6zSR9lrW0eEH2U1vSe3f-24" value="生成" style="text;html=1;align=center;verticalAlign=middle;resizable=0;points=[];autosize=1;strokeColor=none;fillColor=none;fontSize=14;" vertex="1" parent="1">
          <mxGeometry x="1434" y="-1079" width="46" height="29" as="geometry" />
        </mxCell>
        <mxCell id="6zSR9lrW0eEH2U1vSe3f-26" value="生成" style="text;html=1;align=center;verticalAlign=middle;resizable=0;points=[];autosize=1;strokeColor=none;fillColor=none;fontSize=14;" vertex="1" parent="1">
          <mxGeometry x="1436" y="-963" width="46" height="29" as="geometry" />
        </mxCell>
        <mxCell id="6zSR9lrW0eEH2U1vSe3f-27" value="提示" style="text;html=1;align=center;verticalAlign=middle;resizable=0;points=[];autosize=1;strokeColor=none;fillColor=none;fontSize=14;" vertex="1" parent="1">
          <mxGeometry x="1195" y="-1083" width="46" height="29" as="geometry" />
        </mxCell>
        <mxCell id="6zSR9lrW0eEH2U1vSe3f-28" value="提示" style="text;html=1;align=center;verticalAlign=middle;resizable=0;points=[];autosize=1;strokeColor=none;fillColor=none;fontSize=14;" vertex="1" parent="1">
          <mxGeometry x="1201" y="-964" width="46" height="29" as="geometry" />
        </mxCell>
        <mxCell id="6zSR9lrW0eEH2U1vSe3f-29" value="上下文学习蒸馏" style="text;html=1;align=center;verticalAlign=middle;resizable=0;points=[];autosize=1;strokeColor=none;fillColor=none;fontSize=14;" vertex="1" parent="1">
          <mxGeometry x="1506" y="-1200" width="116" height="29" as="geometry" />
        </mxCell>
        <mxCell id="6zSR9lrW0eEH2U1vSe3f-30" value="思维链蒸馏" style="text;html=1;align=center;verticalAlign=middle;resizable=0;points=[];autosize=1;strokeColor=none;fillColor=none;fontSize=14;" vertex="1" parent="1">
          <mxGeometry x="1642" y="-1078" width="88" height="29" as="geometry" />
        </mxCell>
        <mxCell id="6zSR9lrW0eEH2U1vSe3f-31" value="指令遵循蒸馏" style="text;html=1;align=center;verticalAlign=middle;resizable=0;points=[];autosize=1;strokeColor=none;fillColor=none;fontSize=14;" vertex="1" parent="1">
          <mxGeometry x="1637" y="-965" width="102" height="29" as="geometry" />
        </mxCell>
        <mxCell id="6zSR9lrW0eEH2U1vSe3f-34" value="" style="rounded=0;whiteSpace=wrap;html=1;dashed=1;dashPattern=8 8;fillColor=none;strokeColor=#B3B3B3;" vertex="1" parent="1">
          <mxGeometry x="1272" y="-1214" width="138" height="316" as="geometry" />
        </mxCell>
        <mxCell id="6zSR9lrW0eEH2U1vSe3f-35" value="" style="rounded=0;whiteSpace=wrap;html=1;fillColor=none;dashed=1;dashPattern=8 8;strokeColor=#B3B3B3;" vertex="1" parent="1">
          <mxGeometry x="1730" y="-1218" width="138" height="324" as="geometry" />
        </mxCell>
        <mxCell id="6zSR9lrW0eEH2U1vSe3f-37" value="&lt;font style=&quot;font-size: 14px;&quot;&gt;教师模型&lt;/font&gt;" style="text;html=1;align=center;verticalAlign=middle;resizable=0;points=[];autosize=1;strokeColor=#B3B3B3;fillColor=none;dashed=1;dashPattern=8 8;" vertex="1" parent="1">
          <mxGeometry x="1304" y="-889" width="74" height="29" as="geometry" />
        </mxCell>
        <mxCell id="6zSR9lrW0eEH2U1vSe3f-39" value="（a）" style="text;html=1;align=center;verticalAlign=middle;resizable=0;points=[];autosize=1;strokeColor=none;fillColor=none;fontSize=19;fontStyle=1" vertex="1" parent="1">
          <mxGeometry x="979" y="-1189" width="67" height="35" as="geometry" />
        </mxCell>
        <mxCell id="6zSR9lrW0eEH2U1vSe3f-40" value="（b）" style="text;html=1;align=center;verticalAlign=middle;resizable=0;points=[];autosize=1;strokeColor=none;fillColor=none;fontSize=19;fontStyle=1" vertex="1" parent="1">
          <mxGeometry x="977" y="-1067" width="67" height="35" as="geometry" />
        </mxCell>
        <mxCell id="6zSR9lrW0eEH2U1vSe3f-41" value="（c）" style="text;html=1;align=center;verticalAlign=middle;resizable=0;points=[];autosize=1;strokeColor=none;fillColor=none;fontSize=19;fontStyle=1" vertex="1" parent="1">
          <mxGeometry x="978" y="-952" width="66" height="35" as="geometry" />
        </mxCell>
        <mxCell id="6zSR9lrW0eEH2U1vSe3f-42" value="&lt;font style=&quot;font-size: 14px;&quot;&gt;学生模型&lt;/font&gt;" style="text;html=1;align=center;verticalAlign=middle;resizable=0;points=[];autosize=1;strokeColor=#B3B3B3;fillColor=none;dashed=1;dashPattern=8 8;" vertex="1" parent="1">
          <mxGeometry x="1758" y="-883" width="74" height="29" as="geometry" />
        </mxCell>
        <mxCell id="6zSR9lrW0eEH2U1vSe3f-60" style="edgeStyle=orthogonalEdgeStyle;rounded=0;orthogonalLoop=1;jettySize=auto;html=1;exitX=0.5;exitY=1;exitDx=0;exitDy=0;entryX=0.5;entryY=0;entryDx=0;entryDy=0;fontFamily=Georgia;" edge="1" parent="1" source="6zSR9lrW0eEH2U1vSe3f-43" target="6zSR9lrW0eEH2U1vSe3f-57">
          <mxGeometry relative="1" as="geometry" />
        </mxCell>
        <mxCell id="6zSR9lrW0eEH2U1vSe3f-43" value="" style="rounded=1;whiteSpace=wrap;html=1;fillColor=#E6E6E6;fontFamily=Georgia;" vertex="1" parent="1">
          <mxGeometry x="1410" y="-523" width="163" height="115" as="geometry" />
        </mxCell>
        <mxCell id="6zSR9lrW0eEH2U1vSe3f-44" value="&lt;font style=&quot;font-size: 10px;&quot;&gt;评论：食物很糟糕&amp;nbsp; &amp;nbsp; 情感：消极&lt;/font&gt;" style="whiteSpace=wrap;html=1;strokeColor=none;fillColor=#f5f5f5;fontColor=#333333;fontFamily=Georgia;" vertex="1" parent="1">
          <mxGeometry x="1415" y="-494" width="153" height="17" as="geometry" />
        </mxCell>
        <mxCell id="6zSR9lrW0eEH2U1vSe3f-45" value="&lt;font style=&quot;font-size: 10px;&quot;&gt;评论：食物很美味&amp;nbsp; &amp;nbsp; 情感：积极&lt;/font&gt;" style="whiteSpace=wrap;html=1;strokeColor=none;fillColor=#f5f5f5;fontColor=#333333;fontFamily=Georgia;" vertex="1" parent="1">
          <mxGeometry x="1415" y="-514" width="153" height="17" as="geometry" />
        </mxCell>
        <mxCell id="6zSR9lrW0eEH2U1vSe3f-46" value="&lt;font style=&quot;font-size: 10px;&quot;&gt;评论：肮脏的盘子&amp;nbsp; &amp;nbsp; 情感：消极&lt;/font&gt;" style="whiteSpace=wrap;html=1;strokeColor=none;fillColor=#f5f5f5;fontColor=#333333;fontFamily=Georgia;" vertex="1" parent="1">
          <mxGeometry x="1415" y="-474" width="153" height="17" as="geometry" />
        </mxCell>
        <mxCell id="6zSR9lrW0eEH2U1vSe3f-47" value="&lt;font style=&quot;font-size: 10px;&quot;&gt;评论：很棒的一餐&amp;nbsp; &amp;nbsp; 情感：？&lt;/font&gt;" style="whiteSpace=wrap;html=1;strokeColor=#d79b00;fillColor=#ffe6cc;fontFamily=Georgia;" vertex="1" parent="1">
          <mxGeometry x="1415" y="-439" width="153" height="17" as="geometry" />
        </mxCell>
        <mxCell id="6zSR9lrW0eEH2U1vSe3f-48" value="" style="endArrow=none;dashed=1;html=1;rounded=0;dashPattern=1 2;fontFamily=Georgia;" edge="1" parent="1">
          <mxGeometry width="50" height="50" relative="1" as="geometry">
            <mxPoint x="1444.0000000000005" y="-360" as="sourcePoint" />
            <mxPoint x="1445.0000000000005" y="-360" as="targetPoint" />
          </mxGeometry>
        </mxCell>
        <mxCell id="6zSR9lrW0eEH2U1vSe3f-50" value="" style="endArrow=none;dashed=1;html=1;dashPattern=1 3;strokeWidth=2;rounded=0;fontFamily=Georgia;" edge="1" parent="1">
          <mxGeometry width="50" height="50" relative="1" as="geometry">
            <mxPoint x="1434" y="-443" as="sourcePoint" />
            <mxPoint x="1434" y="-457" as="targetPoint" />
          </mxGeometry>
        </mxCell>
        <mxCell id="6zSR9lrW0eEH2U1vSe3f-51" value="" style="endArrow=none;dashed=1;html=1;dashPattern=1 3;strokeWidth=2;rounded=0;fontFamily=Georgia;" edge="1" parent="1">
          <mxGeometry width="50" height="50" relative="1" as="geometry">
            <mxPoint x="1525" y="-443" as="sourcePoint" />
            <mxPoint x="1525" y="-457" as="targetPoint" />
          </mxGeometry>
        </mxCell>
        <mxCell id="6zSR9lrW0eEH2U1vSe3f-52" value="" style="endArrow=none;dashed=1;html=1;dashPattern=1 3;strokeWidth=2;rounded=0;fontFamily=Georgia;" edge="1" parent="1">
          <mxGeometry width="50" height="50" relative="1" as="geometry">
            <mxPoint x="1469" y="-448" as="sourcePoint" />
            <mxPoint x="1500" y="-448" as="targetPoint" />
          </mxGeometry>
        </mxCell>
        <mxCell id="6zSR9lrW0eEH2U1vSe3f-53" value="" style="shape=curlyBracket;whiteSpace=wrap;html=1;rounded=1;flipH=1;labelPosition=right;verticalLabelPosition=middle;align=left;verticalAlign=middle;fontFamily=Georgia;" vertex="1" parent="1">
          <mxGeometry x="1580" y="-441" width="15" height="21" as="geometry" />
        </mxCell>
        <mxCell id="6zSR9lrW0eEH2U1vSe3f-54" value="" style="shape=curlyBracket;whiteSpace=wrap;html=1;rounded=1;flipH=1;labelPosition=right;verticalLabelPosition=middle;align=left;verticalAlign=middle;size=0.5;fontFamily=Georgia;" vertex="1" parent="1">
          <mxGeometry x="1583" y="-511" width="13" height="53" as="geometry" />
        </mxCell>
        <mxCell id="6zSR9lrW0eEH2U1vSe3f-55" value="&lt;font style=&quot;font-size: 9px;&quot;&gt;新查询&lt;/font&gt;" style="text;html=1;align=center;verticalAlign=middle;resizable=0;points=[];autosize=1;strokeColor=none;fillColor=none;fontFamily=Georgia;" vertex="1" parent="1">
          <mxGeometry x="1601" y="-443.5" width="45" height="26" as="geometry" />
        </mxCell>
        <mxCell id="6zSR9lrW0eEH2U1vSe3f-56" value="&lt;font style=&quot;font-size: 9px;&quot;&gt;n 维上下文演示模板&lt;/font&gt;" style="text;html=1;align=center;verticalAlign=middle;resizable=0;points=[];autosize=1;strokeColor=none;fillColor=none;fontFamily=Georgia;" vertex="1" parent="1">
          <mxGeometry x="1605" y="-497.5" width="98" height="26" as="geometry" />
        </mxCell>
        <mxCell id="6zSR9lrW0eEH2U1vSe3f-64" style="edgeStyle=orthogonalEdgeStyle;rounded=0;orthogonalLoop=1;jettySize=auto;html=1;exitX=1;exitY=0.5;exitDx=0;exitDy=0;fontFamily=Georgia;" edge="1" parent="1" source="6zSR9lrW0eEH2U1vSe3f-57" target="6zSR9lrW0eEH2U1vSe3f-63">
          <mxGeometry relative="1" as="geometry" />
        </mxCell>
        <mxCell id="6zSR9lrW0eEH2U1vSe3f-65" value="&lt;font style=&quot;font-size: 9px;&quot;&gt;输出&lt;/font&gt;" style="edgeLabel;html=1;align=center;verticalAlign=middle;resizable=0;points=[];fontFamily=Georgia;" vertex="1" connectable="0" parent="6zSR9lrW0eEH2U1vSe3f-64">
          <mxGeometry x="-0.0984" y="2" relative="1" as="geometry">
            <mxPoint x="2" y="-7" as="offset" />
          </mxGeometry>
        </mxCell>
        <mxCell id="6zSR9lrW0eEH2U1vSe3f-57" value="&lt;h3 style=&quot;line-height: 0%;&quot;&gt;&lt;span style=&quot;background-color: initial;&quot;&gt;LLMs&lt;/span&gt;&lt;/h3&gt;" style="shape=ext;double=1;rounded=1;whiteSpace=wrap;html=1;align=left;fillColor=#dae8fc;strokeColor=#6c8ebf;fontFamily=Georgia;" vertex="1" parent="1">
          <mxGeometry x="1431.5" y="-359" width="120" height="46" as="geometry" />
        </mxCell>
        <mxCell id="6zSR9lrW0eEH2U1vSe3f-58" value="&lt;font style=&quot;font-size: 8px;&quot; color=&quot;#b3b3b3&quot;&gt;冻结参数&lt;/font&gt;" style="text;html=1;align=center;verticalAlign=middle;resizable=0;points=[];autosize=1;strokeColor=#666666;fillColor=#f5f5f5;fontColor=#333333;rounded=1;fontFamily=Georgia;" vertex="1" parent="1">
          <mxGeometry x="1498.5" y="-342" width="50" height="26" as="geometry" />
        </mxCell>
        <mxCell id="6zSR9lrW0eEH2U1vSe3f-61" value="&lt;font style=&quot;font-size: 9px;&quot;&gt;输入&lt;/font&gt;" style="text;html=1;align=center;verticalAlign=middle;resizable=0;points=[];autosize=1;strokeColor=none;fillColor=none;fontFamily=Georgia;" vertex="1" parent="1">
          <mxGeometry x="1495" y="-399" width="36" height="26" as="geometry" />
        </mxCell>
        <mxCell id="6zSR9lrW0eEH2U1vSe3f-63" value="&lt;font style=&quot;font-size: 10px;&quot;&gt;&amp;nbsp;情感：积极&lt;/font&gt;" style="whiteSpace=wrap;html=1;strokeColor=#d79b00;fillColor=#ffe6cc;fontFamily=Georgia;" vertex="1" parent="1">
          <mxGeometry x="1632" y="-345.25" width="61" height="18.5" as="geometry" />
        </mxCell>
        <mxCell id="6zSR9lrW0eEH2U1vSe3f-79" value="" style="rounded=1;whiteSpace=wrap;html=1;fillColor=#f5f5f5;strokeColor=#666666;fontColor=#333333;" vertex="1" parent="1">
          <mxGeometry x="1410" y="425.5" width="130" height="271" as="geometry" />
        </mxCell>
        <mxCell id="6zSR9lrW0eEH2U1vSe3f-80" value="Add &amp;amp; Norm" style="rounded=0;whiteSpace=wrap;html=1;fillColor=#fff2cc;strokeColor=#d6b656;flipV=1;" vertex="1" parent="1">
          <mxGeometry x="1438.5" y="443" width="73" height="27" as="geometry" />
        </mxCell>
        <mxCell id="6zSR9lrW0eEH2U1vSe3f-81" style="edgeStyle=orthogonalEdgeStyle;rounded=0;orthogonalLoop=1;jettySize=auto;html=1;exitX=0.5;exitY=0;exitDx=0;exitDy=0;entryX=0.5;entryY=1;entryDx=0;entryDy=0;startArrow=none;startFill=0;endArrow=classic;endFill=1;" edge="1" parent="1" source="6zSR9lrW0eEH2U1vSe3f-82" target="6zSR9lrW0eEH2U1vSe3f-80">
          <mxGeometry relative="1" as="geometry" />
        </mxCell>
        <mxCell id="6zSR9lrW0eEH2U1vSe3f-82" value="Feed Forward" style="rounded=1;whiteSpace=wrap;html=1;fillColor=#dae8fc;strokeColor=#6c8ebf;flipV=1;" vertex="1" parent="1">
          <mxGeometry x="1432.5" y="490" width="85" height="54" as="geometry" />
        </mxCell>
        <mxCell id="6zSR9lrW0eEH2U1vSe3f-83" style="edgeStyle=orthogonalEdgeStyle;rounded=0;orthogonalLoop=1;jettySize=auto;html=1;exitX=0;exitY=0.5;exitDx=0;exitDy=0;startArrow=classic;startFill=1;endArrow=none;endFill=0;" edge="1" parent="1">
          <mxGeometry relative="1" as="geometry">
            <mxPoint x="1438.6034482758623" y="577.7241379310344" as="sourcePoint" />
            <mxPoint x="1474.5000000000002" y="681" as="targetPoint" />
            <Array as="points">
              <mxPoint x="1418.5000000000002" y="577" />
              <mxPoint x="1418.5000000000002" y="681" />
              <mxPoint x="1432.5000000000002" y="681" />
            </Array>
          </mxGeometry>
        </mxCell>
        <mxCell id="6zSR9lrW0eEH2U1vSe3f-84" style="edgeStyle=orthogonalEdgeStyle;rounded=0;orthogonalLoop=1;jettySize=auto;html=1;exitX=0.5;exitY=0;exitDx=0;exitDy=0;entryX=0.501;entryY=0.437;entryDx=0;entryDy=0;entryPerimeter=0;startArrow=none;startFill=0;endArrow=classic;endFill=1;" edge="1" parent="1" source="6zSR9lrW0eEH2U1vSe3f-85" target="6zSR9lrW0eEH2U1vSe3f-79">
          <mxGeometry relative="1" as="geometry" />
        </mxCell>
        <mxCell id="6zSR9lrW0eEH2U1vSe3f-85" value="Add &amp;amp; Norm" style="rounded=0;whiteSpace=wrap;html=1;fillColor=#fff2cc;strokeColor=#d6b656;flipV=1;" vertex="1" parent="1">
          <mxGeometry x="1438.5" y="565" width="73" height="27" as="geometry" />
        </mxCell>
        <mxCell id="6zSR9lrW0eEH2U1vSe3f-86" style="edgeStyle=orthogonalEdgeStyle;rounded=0;orthogonalLoop=1;jettySize=auto;html=1;exitX=0.5;exitY=0;exitDx=0;exitDy=0;entryX=0.5;entryY=1;entryDx=0;entryDy=0;startArrow=none;startFill=0;endArrow=classic;endFill=1;" edge="1" parent="1" source="6zSR9lrW0eEH2U1vSe3f-87" target="6zSR9lrW0eEH2U1vSe3f-85">
          <mxGeometry relative="1" as="geometry" />
        </mxCell>
        <mxCell id="6zSR9lrW0eEH2U1vSe3f-87" value="Multi-Head&lt;br&gt;Attention" style="rounded=1;whiteSpace=wrap;html=1;fillColor=#ffe6cc;strokeColor=#d79b00;flipV=1;" vertex="1" parent="1">
          <mxGeometry x="1432.5" y="612" width="85" height="54" as="geometry" />
        </mxCell>
        <mxCell id="6zSR9lrW0eEH2U1vSe3f-88" style="edgeStyle=orthogonalEdgeStyle;rounded=0;orthogonalLoop=1;jettySize=auto;html=1;exitX=0.5;exitY=0;exitDx=0;exitDy=0;entryX=0.5;entryY=1;entryDx=0;entryDy=0;" edge="1" parent="1" source="6zSR9lrW0eEH2U1vSe3f-89" target="6zSR9lrW0eEH2U1vSe3f-87">
          <mxGeometry relative="1" as="geometry" />
        </mxCell>
        <mxCell id="6zSR9lrW0eEH2U1vSe3f-89" value="" style="shape=orEllipse;perimeter=ellipsePerimeter;whiteSpace=wrap;html=1;backgroundOutline=1;" vertex="1" parent="1">
          <mxGeometry x="1462.5000000000002" y="717" width="25" height="25" as="geometry" />
        </mxCell>
        <mxCell id="6zSR9lrW0eEH2U1vSe3f-90" value="" style="endArrow=classic;html=1;entryX=0.5;entryY=1;entryDx=0;entryDy=0;" edge="1" parent="1" target="6zSR9lrW0eEH2U1vSe3f-89">
          <mxGeometry width="50" height="50" relative="1" as="geometry">
            <mxPoint x="1475.5000000000002" y="791" as="sourcePoint" />
            <mxPoint x="1554.5000000000002" y="849" as="targetPoint" />
          </mxGeometry>
        </mxCell>
        <mxCell id="6zSR9lrW0eEH2U1vSe3f-91" value="" style="rounded=1;whiteSpace=wrap;html=1;fillColor=#f5f5f5;strokeColor=#666666;fontColor=#333333;" vertex="1" parent="1">
          <mxGeometry x="1605.5000000000002" y="300" width="130" height="400" as="geometry" />
        </mxCell>
        <mxCell id="6zSR9lrW0eEH2U1vSe3f-92" style="edgeStyle=orthogonalEdgeStyle;rounded=0;orthogonalLoop=1;jettySize=auto;html=1;exitX=0.5;exitY=0;exitDx=0;exitDy=0;entryX=0.5;entryY=1;entryDx=0;entryDy=0;startArrow=none;startFill=0;endArrow=classic;endFill=1;" edge="1" parent="1" source="6zSR9lrW0eEH2U1vSe3f-93" target="6zSR9lrW0eEH2U1vSe3f-104">
          <mxGeometry relative="1" as="geometry" />
        </mxCell>
        <mxCell id="6zSR9lrW0eEH2U1vSe3f-93" value="Add &amp;amp; Norm" style="rounded=0;whiteSpace=wrap;html=1;fillColor=#fff2cc;strokeColor=#d6b656;flipV=1;" vertex="1" parent="1">
          <mxGeometry x="1633.5000000000002" y="439" width="73" height="27" as="geometry" />
        </mxCell>
        <mxCell id="6zSR9lrW0eEH2U1vSe3f-94" style="edgeStyle=orthogonalEdgeStyle;rounded=0;orthogonalLoop=1;jettySize=auto;html=1;exitX=0.5;exitY=0;exitDx=0;exitDy=0;entryX=0.5;entryY=1;entryDx=0;entryDy=0;startArrow=none;startFill=0;endArrow=classic;endFill=1;" edge="1" parent="1" source="6zSR9lrW0eEH2U1vSe3f-95" target="6zSR9lrW0eEH2U1vSe3f-93">
          <mxGeometry relative="1" as="geometry" />
        </mxCell>
        <mxCell id="6zSR9lrW0eEH2U1vSe3f-95" value="Multi-Head&lt;br&gt;Attention" style="rounded=1;whiteSpace=wrap;html=1;fillColor=#dae8fc;strokeColor=#6c8ebf;flipV=1;" vertex="1" parent="1">
          <mxGeometry x="1627.5000000000002" y="489" width="85" height="54" as="geometry" />
        </mxCell>
        <mxCell id="6zSR9lrW0eEH2U1vSe3f-96" style="edgeStyle=orthogonalEdgeStyle;rounded=0;orthogonalLoop=1;jettySize=auto;html=1;exitX=0.5;exitY=0;exitDx=0;exitDy=0;entryX=0.5;entryY=1;entryDx=0;entryDy=0;startArrow=none;startFill=0;endArrow=classic;endFill=1;" edge="1" parent="1" source="6zSR9lrW0eEH2U1vSe3f-97" target="6zSR9lrW0eEH2U1vSe3f-95">
          <mxGeometry relative="1" as="geometry" />
        </mxCell>
        <mxCell id="6zSR9lrW0eEH2U1vSe3f-97" value="Add &amp;amp; Norm" style="rounded=0;whiteSpace=wrap;html=1;fillColor=#fff2cc;strokeColor=#d6b656;flipV=1;" vertex="1" parent="1">
          <mxGeometry x="1634" y="565" width="73" height="27" as="geometry" />
        </mxCell>
        <mxCell id="6zSR9lrW0eEH2U1vSe3f-98" style="edgeStyle=orthogonalEdgeStyle;rounded=0;orthogonalLoop=1;jettySize=auto;html=1;exitX=0.5;exitY=0;exitDx=0;exitDy=0;entryX=0.5;entryY=1;entryDx=0;entryDy=0;startArrow=none;startFill=0;endArrow=classic;endFill=1;" edge="1" parent="1" source="6zSR9lrW0eEH2U1vSe3f-99" target="6zSR9lrW0eEH2U1vSe3f-97">
          <mxGeometry relative="1" as="geometry" />
        </mxCell>
        <mxCell id="6zSR9lrW0eEH2U1vSe3f-99" value="Masked&lt;div&gt;Multi-Head&lt;br&gt;Attention&lt;/div&gt;" style="rounded=1;whiteSpace=wrap;html=1;fillColor=#ffe6cc;strokeColor=#d79b00;flipV=1;" vertex="1" parent="1">
          <mxGeometry x="1627.5000000000002" y="615" width="85" height="54" as="geometry" />
        </mxCell>
        <mxCell id="6zSR9lrW0eEH2U1vSe3f-100" style="edgeStyle=orthogonalEdgeStyle;rounded=0;orthogonalLoop=1;jettySize=auto;html=1;exitX=0.5;exitY=0;exitDx=0;exitDy=0;entryX=0.5;entryY=1;entryDx=0;entryDy=0;" edge="1" parent="1" source="6zSR9lrW0eEH2U1vSe3f-101" target="6zSR9lrW0eEH2U1vSe3f-99">
          <mxGeometry relative="1" as="geometry" />
        </mxCell>
        <mxCell id="6zSR9lrW0eEH2U1vSe3f-101" value="" style="shape=orEllipse;perimeter=ellipsePerimeter;whiteSpace=wrap;html=1;backgroundOutline=1;" vertex="1" parent="1">
          <mxGeometry x="1658.0000000000002" y="720" width="25" height="25" as="geometry" />
        </mxCell>
        <mxCell id="6zSR9lrW0eEH2U1vSe3f-102" value="" style="endArrow=classic;html=1;entryX=0.5;entryY=1;entryDx=0;entryDy=0;" edge="1" parent="1" target="6zSR9lrW0eEH2U1vSe3f-101">
          <mxGeometry width="50" height="50" relative="1" as="geometry">
            <mxPoint x="1670.5000000000002" y="794" as="sourcePoint" />
            <mxPoint x="1750.0000000000002" y="852" as="targetPoint" />
          </mxGeometry>
        </mxCell>
        <mxCell id="6zSR9lrW0eEH2U1vSe3f-103" style="edgeStyle=orthogonalEdgeStyle;rounded=0;orthogonalLoop=1;jettySize=auto;html=1;exitX=0.5;exitY=0;exitDx=0;exitDy=0;entryX=0.5;entryY=1;entryDx=0;entryDy=0;startArrow=none;startFill=0;endArrow=classic;endFill=1;" edge="1" parent="1" source="6zSR9lrW0eEH2U1vSe3f-104" target="6zSR9lrW0eEH2U1vSe3f-105">
          <mxGeometry relative="1" as="geometry" />
        </mxCell>
        <mxCell id="6zSR9lrW0eEH2U1vSe3f-104" value="Feed Forward" style="rounded=1;whiteSpace=wrap;html=1;fillColor=#dae8fc;strokeColor=#6c8ebf;flipV=1;" vertex="1" parent="1">
          <mxGeometry x="1627.5000000000002" y="363" width="85" height="54" as="geometry" />
        </mxCell>
        <mxCell id="6zSR9lrW0eEH2U1vSe3f-105" value="Add &amp;amp; Norm" style="rounded=0;whiteSpace=wrap;html=1;fillColor=#fff2cc;strokeColor=#d6b656;flipV=1;" vertex="1" parent="1">
          <mxGeometry x="1633.5000000000002" y="313" width="73" height="27" as="geometry" />
        </mxCell>
        <mxCell id="6zSR9lrW0eEH2U1vSe3f-106" style="edgeStyle=orthogonalEdgeStyle;rounded=0;orthogonalLoop=1;jettySize=auto;html=1;exitX=0;exitY=0.5;exitDx=0;exitDy=0;startArrow=classic;startFill=1;endArrow=none;endFill=0;" edge="1" parent="1" source="6zSR9lrW0eEH2U1vSe3f-97">
          <mxGeometry relative="1" as="geometry">
            <mxPoint x="1634.0116279069769" y="578.4883720930234" as="sourcePoint" />
            <mxPoint x="1670.1046511627908" y="684.6279069767443" as="targetPoint" />
            <Array as="points">
              <mxPoint x="1614.5000000000002" y="578" />
              <mxPoint x="1614.5000000000002" y="685" />
              <mxPoint x="1627.5000000000002" y="685" />
            </Array>
          </mxGeometry>
        </mxCell>
        <mxCell id="6zSR9lrW0eEH2U1vSe3f-112" style="edgeStyle=orthogonalEdgeStyle;rounded=0;orthogonalLoop=1;jettySize=auto;html=1;exitX=1;exitY=0.5;exitDx=0;exitDy=0;entryX=0;entryY=0.5;entryDx=0;entryDy=0;" edge="1" parent="1" source="6zSR9lrW0eEH2U1vSe3f-107" target="6zSR9lrW0eEH2U1vSe3f-110">
          <mxGeometry relative="1" as="geometry" />
        </mxCell>
        <mxCell id="6zSR9lrW0eEH2U1vSe3f-107" value="" style="shape=datastore;whiteSpace=wrap;html=1;movable=1;resizable=1;rotatable=1;deletable=1;editable=1;locked=0;connectable=1;" vertex="1" parent="1">
          <mxGeometry x="1241" y="916" width="98" height="100" as="geometry" />
        </mxCell>
        <mxCell id="6zSR9lrW0eEH2U1vSe3f-108" value="训练集" style="text;html=1;align=center;verticalAlign=middle;resizable=1;points=[];autosize=1;strokeColor=none;fillColor=none;movable=1;rotatable=1;deletable=1;editable=1;locked=0;connectable=1;" vertex="1" parent="1">
          <mxGeometry x="1259" y="970" width="54" height="26" as="geometry" />
        </mxCell>
        <mxCell id="6zSR9lrW0eEH2U1vSe3f-110" value="基座模型" style="rounded=1;whiteSpace=wrap;html=1;" vertex="1" parent="1">
          <mxGeometry x="1788.5" y="936" width="120" height="60" as="geometry" />
        </mxCell>
        <mxCell id="6zSR9lrW0eEH2U1vSe3f-113" value="预训练" style="text;html=1;align=center;verticalAlign=middle;resizable=0;points=[];autosize=1;strokeColor=none;fillColor=none;" vertex="1" parent="1">
          <mxGeometry x="1552" y="939" width="54" height="26" as="geometry" />
        </mxCell>
        <mxCell id="6zSR9lrW0eEH2U1vSe3f-114" value="" style="rounded=1;whiteSpace=wrap;html=1;dashed=1;dashPattern=12 12;fillColor=none;" vertex="1" parent="1">
          <mxGeometry x="1570" y="486" width="191" height="60" as="geometry" />
        </mxCell>
        <mxCell id="6zSR9lrW0eEH2U1vSe3f-115" value="" style="rounded=1;whiteSpace=wrap;html=1;dashed=1;dashPattern=12 12;fillColor=none;" vertex="1" parent="1">
          <mxGeometry x="1568" y="360" width="191" height="60" as="geometry" />
        </mxCell>
        <mxCell id="6zSR9lrW0eEH2U1vSe3f-116" value="" style="endArrow=none;html=1;rounded=0;dashed=1;" edge="1" parent="1">
          <mxGeometry width="50" height="50" relative="1" as="geometry">
            <mxPoint x="1632" y="939" as="sourcePoint" />
            <mxPoint x="1772" y="678" as="targetPoint" />
          </mxGeometry>
        </mxCell>
        <mxCell id="6zSR9lrW0eEH2U1vSe3f-117" value="" style="endArrow=none;html=1;rounded=0;dashed=1;" edge="1" parent="1">
          <mxGeometry width="50" height="50" relative="1" as="geometry">
            <mxPoint x="1529" y="936" as="sourcePoint" />
            <mxPoint x="1382" y="675" as="targetPoint" />
          </mxGeometry>
        </mxCell>
      </root>
    </mxGraphModel>
  </diagram>
</mxfile>
